<svg xmlns="http://www.w3.org/2000/svg" viewBox="0 0 239.44 101.06"><defs><style>.cls-1{fill:#f9c124;}</style></defs><g id="レイヤー_2" data-name="レイヤー 2"><g id="レイヤー_1-2" data-name="レイヤー 1"><path class="cls-1" d="M214.33,84.26a1,1,0,0,1-.19.78c-2.59,4.48-6.15,7.82-11.22,9.28a18.28,18.28,0,0,1-13.06-1.17A28.75,28.75,0,0,1,178,82.65c-.31-.45-.6-.9-.9-1.36-.41.25-.51.66-.7,1a47,47,0,0,1-9.87,12.52,24.17,24.17,0,0,1-11.07,5.91,14.33,14.33,0,0,1-14.08-4.58A25.52,25.52,0,0,1,135.69,85c-.12-.44-.06-1.06-.45-1.28s-.78.37-1.19.56q-10.13,4.58-18.74-2.41a25.69,25.69,0,0,1-5.26-6.08c-.57-.88-.59-.88-1.42-.36a31.77,31.77,0,0,1-19.36,4.8,33.52,33.52,0,0,1-15.18-4.94c-1.15-.69-1.16-.69-1.62.58a24,24,0,0,1-5.91,9.34A19.52,19.52,0,0,1,49.77,90.5c-6-.8-11-3.66-15.54-7.57l-1.68-1.5c-.33-.41-.54-.74-.13-1.31a23.22,23.22,0,0,0,4.25-16.37,22.46,22.46,0,0,0-4-11,17.85,17.85,0,0,0-11.34-7.6c-1.18-.23-1.27-.21-1.41,1A38.56,38.56,0,0,0,20,55.26a45.28,45.28,0,0,0,8.22,21A39.75,39.75,0,0,0,31.25,80c.66.72.66.73.13,1.51,0,0,0,.08-.05.11a28.38,28.38,0,0,1-3.66,3.18,16.17,16.17,0,0,1-19.92-1A21.57,21.57,0,0,1,.28,69.88,23.48,23.48,0,0,1,3.17,54.32a18,18,0,0,1,12-9.09A15.36,15.36,0,0,1,19,44.87c1.08,0,1.08,0,1.27-1A28.09,28.09,0,0,1,24,33.8a20,20,0,0,1,13.45-9.5A22.17,22.17,0,0,1,49.7,25.5a33,33,0,0,1,5.49,2.71c.36-.22.36-.55.44-.85A38.57,38.57,0,0,1,65,10.29,32.09,32.09,0,0,1,83.64.41C93-1,101.42,1.44,109,6.93c1.28.92,2.46,2,3.68,3,.15.18.28.36.44.53,1.18,1.2,1.19,1.2,2.17-.26,1.21-1.19,2.32-2.48,3.62-3.59A22,22,0,0,1,128,1.65c5.94-1.42,11.1.22,15.59,4.2a30,30,0,0,1,7.51,10.84A48.25,48.25,0,0,1,154.26,27c.07.39.17.77.27,1.18.5.07.79-.31,1.13-.54A22.24,22.24,0,0,1,163,24.38c6-1.33,10.93.46,14.93,5a24.47,24.47,0,0,1,4.77,8.94c.08.22.13.45.21.68.25.74.26.76,1,.42a17.37,17.37,0,0,1,6.48-1.76,19.08,19.08,0,0,1,9,1.6,26,26,0,0,1,8.08,5.54c1.08,1.06.81,1,1.81.08A23.63,23.63,0,0,1,220.08,39c5.08-1.08,9.77-.29,13.76,3.25A16.48,16.48,0,0,1,239,51.93a26.82,26.82,0,0,1-3,17.56,28.75,28.75,0,0,1-11.22,12,19.6,19.6,0,0,1-10.15,2.84c.44-1.09.93-2.17,1.32-3.29a32.31,32.31,0,0,0,1.47-15.3,36.93,36.93,0,0,0-6.63-16.93,18.66,18.66,0,0,0-2.5-3,29.62,29.62,0,0,0-8.92,23,18.49,18.49,0,0,0,2.41,8A14.22,14.22,0,0,0,214.33,84.26Zm-100.52-72a14.79,14.79,0,0,0-1.85,2.6c-5.47,8.79-8,18.49-8.8,28.72a62.19,62.19,0,0,0,.19,11.25A54.75,54.75,0,0,0,106.26,68a36.32,36.32,0,0,0,3.18,6.73,2.85,2.85,0,0,0,1-.61,34.14,34.14,0,0,0,7.36-7.19A40.94,40.94,0,0,0,126,40.51a44.23,44.23,0,0,0-4.38-18.18,37.1,37.1,0,0,0-5.57-8.64,1.45,1.45,0,0,0-.58-.67,1.58,1.58,0,0,0-.66-.74C114.29,11.58,114.29,11.58,113.81,12.29Zm40.77,16.34a1.86,1.86,0,0,0-.41.1,7.63,7.63,0,0,0-.67.49A39.25,39.25,0,0,0,145.41,38a63.26,63.26,0,0,0-11.08,37.36,35.44,35.44,0,0,0,.83,7.17c.21,1,.25,1,1.11.44s1.44-1,2.12-1.51a37,37,0,0,0,9.87-12.32c5.92-11.46,7.89-23.68,6.85-36.45C155,31.37,154.77,30.05,154.58,28.63Zm-99.21-.28A44.54,44.54,0,0,0,58.11,56.8,40.54,40.54,0,0,0,72.79,74.42,3.68,3.68,0,0,0,73,74c.07-.22.14-.45.2-.68a37.1,37.1,0,0,0,.36-17.15A44.92,44.92,0,0,0,62.85,34.68,35.35,35.35,0,0,0,55.37,28.35ZM183.11,39.93a3,3,0,0,0-1.18.62,20.82,20.82,0,0,0-7.28,8.73A30.9,30.9,0,0,0,172,64.52a37.32,37.32,0,0,0,4.52,15.57c.16.29.21.7.68.77a46.34,46.34,0,0,0,2.47-5.24c4-9.89,5.85-20.08,4.49-30.73A26.18,26.18,0,0,0,183.11,39.93Z"/></g></g></svg>