<svg xmlns="http://www.w3.org/2000/svg" viewBox="0 0 239.35 120.78"><defs><style>.cls-1{fill:#d52c5b;}.cls-2{fill:#d7325f;}</style></defs><g id="レイヤー_2" data-name="レイヤー 2"><g id="レイヤー_1-2" data-name="レイヤー 1"><path class="cls-1" d="M30.6,31.9C42.53,19.53,55.87,9.17,72.38,3.67c22.13-7.38,42.71-3.27,62,9.13A111.91,111.91,0,0,1,157.51,33c1.37,1.56,2.06,1.42,3.48.18,10.6-9.25,21.29-18.39,31.89-27.64a7.27,7.27,0,0,1,5.23-1.92c12.66.09,25.32,0,38,0h3.26c-2.19,1.92-3.86,3.41-5.56,4.88q-27.93,24.11-55.9,48.17c-1.35,1.16-1.49,1.92-.58,3.46a224.76,224.76,0,0,1,23.83,57.61c.6,2.25.41,3.06-2.25,3-10.62-.15-21.24-.12-31.87,0-2,0-2.75-.67-3.26-2.49a289.85,289.85,0,0,0-12.31-35c-.35-.81-.73-1.61-1.22-2.69l-15.91,13.7q-14.47,12.49-28.92,25a4.72,4.72,0,0,1-3.28,1.42q-20.33-.06-40.64,0a1.26,1.26,0,0,1-1.33-.57c4.29-3.72,8.61-7.48,12.94-11.21Q103.73,82.47,134.37,56c.83-.72,2.19-1.17,1-2.87-8.28-11.9-17.84-22.45-30.94-29.22-16.71-8.64-33.84-8.06-51.19-2.09-7.8,2.69-15,6.62-22.25,10.5Z"/><path class="cls-1" d="M30.64,66.45c4.25.18,9.47-.29,14.67.21a10.14,10.14,0,0,1,8,5c1.57,2.55,3.13,5.12,4.52,7.78a10.41,10.41,0,0,1-.09,10.4q-7.25,12.8-14.69,25.47a10.18,10.18,0,0,1-8.43,5.21,70.09,70.09,0,0,1-10,0,10.31,10.31,0,0,1-8.6-5.4q-7.27-12.45-14.43-25A10.78,10.78,0,0,1,1.67,78.8C2.76,76.88,4,75,5,73.05c2.35-4.57,6.16-6.6,11.19-6.6Z"/><path class="cls-1" d="M29.67,61.18a2.23,2.23,0,0,1-2.05-1.4c-1.7-3-3.43-6-5.16-8.93a2.68,2.68,0,0,1,0-3c1.77-3,3.41-6,5.2-8.9,1.22-2,2.57-2,3.8.05C33.27,42,34.93,45,36.68,47.94a2.49,2.49,0,0,1,.09,2.73c-1.82,3.12-3.61,6.26-5.41,9.39A2,2,0,0,1,29.67,61.18Z"/><path class="cls-2" d="M15.09,62.6C9.74,64.14,6.87,61.44,5,56.83c-.66-1.61-1.78-3-2.58-4.6C1.4,50.29,2,49,4.14,49c3.53-.12,7.06,0,10.58,0a2.73,2.73,0,0,1,2.54,1.58c1.63,2.92,3.38,5.77,5,8.7,1.29,2.36.63,3.36-2.14,3.41C18.44,62.63,16.77,62.6,15.09,62.6Z"/><path class="cls-2" d="M43.57,62.6H38.26c-2,0-2.67-1.2-1.85-2.78,1.74-3.37,3.74-6.61,5.66-9.89a2.38,2.38,0,0,1,2.31-1c3.36,0,6.72-.07,10.08,0,2.46.07,3.18,1.35,2,3.49-1.49,2.71-3.18,5.31-4.6,8a3.47,3.47,0,0,1-3.79,2.16C46.59,62.5,45.07,62.6,43.57,62.6Z"/><path class="cls-1" d="M31,32.34a.62.62,0,0,1-1,.23l.59-.67Z"/></g></g></svg>