<svg xmlns="http://www.w3.org/2000/svg" xmlns:xlink="http://www.w3.org/1999/xlink" width="181.524" height="181.524" viewBox="0 0 181.524 181.524">
  <defs>
    <linearGradient id="linear-gradient" y1="0.5" x2="0.999" y2="0.5" gradientUnits="objectBoundingBox">
      <stop offset="0" stop-color="#dbdcdc"/>
      <stop offset="1" stop-color="#959696"/>
    </linearGradient>
  </defs>
  <g id="アートワーク_2" data-name="アートワーク 2" transform="translate(68.9 68.9)">
    <g id="アートワーク_2-2" data-name="アートワーク 2" transform="translate(-68.9 -68.9)">
      <circle id="楕円形_12" data-name="楕円形 12" cx="90.762" cy="90.762" r="90.762" fill="url(#linear-gradient)"/>
      <g id="グループ_41" data-name="グループ 41" transform="translate(25.16 63.837)">
        <path id="パス_276" data-name="パス 276" d="M19.1,68.8H39.123c.922,0,.922,0,.922.922v6.586c0,2.239-.132.79-.659.659H36.62c-.527,0-.659-.132-.659-.659V73.674c0-.922-.263-.79-.79-.79h-2.5c-.4,0-.527.132-.527.527V86.847c0,.527.263.527.659.527h1.976c.527,0,.659.132.659.659v2.9c0,.922-.132.659-.659.659H24.5c-.4,0-.659-.132-.659-.659v-2.9c0-.922.132-.659.659-.527h1.976c.4,0,.527-.132.527-.527V73.542c0-.4-.132-.527-.527-.527H23.842c-.4,0-.527.132-.527.527v2.635c0,.79-.132.79-.659.659H19.1Z" transform="translate(-19.1 -42.007)"/>
        <path id="パス_277" data-name="パス 277" d="M19.1,48.8H33.59c.659,0,.922.132.79.922a25.217,25.217,0,0,0,0,3.162c0,1.054-.132.659-.79.659s-1.317.132-1.317-1.317.263-1.581-1.581-1.581H28.585c-.4,0-.659.132-.527.659a.527.527,0,0,1,0,.132q0,6.06-.132,12.119c0,.922,0,.922,1.054.922H30.3c.4,0,.527.132.527.527a3.82,3.82,0,0,0,0,.659c0,.527-.132.659-.659.659H23.579c-.527,0-.79-.132-.659-.659a2.9,2.9,0,0,0,0-.527c0-.4.132-.659.659-.659h1.449c.527,0,.79-.132.79-.79v-6.85c0-2.239,0-3.557.132-5.269s-.263-.922-.922-.922H21.866c-.527,0-.659.263-.659.659v1.449a.614.614,0,0,1-.79.659H19.1Z" transform="translate(-19.1 -48.353)"/>
        <path id="パス_278" data-name="パス 278" d="M74.214,77.658l3.82-4.347v-.263H76.717c-.4,0-.527-.132-.527-.527V69.359c0-1.054.132-.527.527-.527h9.221c.4,0,.527.132.527.527v3.03c0,1.054-.132.527-.527.527H83.831a1.712,1.712,0,0,0-1.054.527L77.639,79.9a.79.79,0,0,0,0,1.054l5.137,6.191.79.4h3.162a.7.7,0,0,1,.79.79v2.766c0,.922-.132.527-.527.527H76.322c-.4,0-.527-.132-.527-.527v-3.03c0-1.054.132-.527.527-.527h1.449l-.263-.527-2.635-3.162c-.263-.263-.4-.4-.659-.132l-3.03,3.425v.4h.527c.922,0,.922,0,.922.922v2.5c0,.79-.132.659-.659.659H62.359c-.4,0-.659-.132-.659-.659v-2.9c0-.922.263-.659.659-.659h2.766l.79-.4,5.137-6.191a.659.659,0,0,0,0-1.054L65.52,73.179a1.581,1.581,0,0,0-.79-.132H62.622c-.4,0-.659-.132-.659-.527v-2.9c0-.922.132-.659.659-.659h9.485c.4,0,.659.132.527.659a21.055,21.055,0,0,0,0,2.9c0,.922-.132.659-.659.527H70.658v.263Z" transform="translate(-5.583 -42.039)"/>
        <path id="パス_279" data-name="パス 279" d="M60.755,76.077,57.2,77.262c-.4.132-.527-.132-.659-.4l-1.054-3.162a.79.79,0,0,0-.79-.659h-5.4c-.527,0-.79.263-.659.79a31.419,31.419,0,0,1,0,3.557c0,1.186.132.79.79.79H54.3c.527,0,.79.132.79.79v2.766c0,.922-.132.659-.659.659H49.294c-.527,0-.659.132-.659.659v4.084c0,1.317.132.659.659.659h6.586a.79.79,0,0,0,.79-.659l1.186-3.293,3.952,1.317-.4,1.054L59.7,91.094a.922.922,0,0,1-1.054.79H41.39c-.659,0-.79-.132-.79-.79V88.459c0-.922.132-.79.79-.79H43.1a.7.7,0,0,0,.79-.79V73.837c0-.527-.132-.79-.659-.79H41.127c-.4,0-.527-.132-.527-.527V69.359c0-1.054.263-.527.659-.527h16.2a.922.922,0,0,1,1.054.79l1.844,5.664Z" transform="translate(-12.278 -42.039)"/>
        <path id="パス_280" data-name="パス 280" d="M118.481,92.787a25.028,25.028,0,0,1-7.509-1.186,1.054,1.054,0,0,1-.922-1.186,31.062,31.062,0,0,0-.527-3.688c-.263-1.186,0-.922.79-.922l2.635-.263c.527-.132.527.132.659.527a4.347,4.347,0,0,1,.132,1.054c-.132.922.4,1.054,1.186,1.186a11.988,11.988,0,0,0,5.4.4c1.449-.263,2.9-.659,3.293-2.371s0-2.5-1.449-2.9l-4.479-.79a10.934,10.934,0,0,1-5.269-1.976,6.06,6.06,0,0,1-2.239-4.479,6.718,6.718,0,0,1,1.976-5.8,7.508,7.508,0,0,1,4.215-1.844,20.682,20.682,0,0,1,9.616.922,1.054,1.054,0,0,1,.922,1.054c.132,1.581.4,3.162.659,4.742s-.132.527-.527.659l-3.03.263c-.527.132-.659-.132-.659-.527l-.263-2.239a.7.7,0,0,0-.79-.79h-5.8a2.239,2.239,0,0,0-1.713,1.976,2.108,2.108,0,0,0,1.317,2.239L119.8,77.9c1.449.4,3.03.527,4.479,1.054s4.611,3.952,4.347,7.245-3.293,6.06-6.85,6.587Z" transform="translate(9.56 -42.151)"/>
        <path id="パス_281" data-name="パス 281" d="M102.5,87.606l-1.054-3.425H95.516l-.527.263-1.054,3.162h1.581c.4,0,.659.132.659.527v3.03c0,1.054-.132.527-.527.527H86.427a.659.659,0,0,1-.527-.4V88.133c0-1.054.263-.527.527-.527h2.635a.79.79,0,0,0,.79-.527l4.611-13.3c.132-.527,0-.659-.527-.659H92.223c-.4,0-.527-.132-.527-.527v-3.03c0-1.054.132-.527.527-.527h8.167c.527,0,.659.4.79.79L105,80.887l2.108,6.06a.922.922,0,0,0,1.054.79h2.108c.4,0,.659.132.659.659v2.9c0,.922-.132.527-.527.527h-9.221c-.4,0-.527-.132-.527-.527V88.4c0-.922.263-.659.659-.659Zm-1.976-6.718-2.239-7.377h-.263l-2.108,7.377Z" transform="translate(2.096 -41.975)"/>
        <path id="パス_282" data-name="パス 282" d="M53.937,48.832a55.324,55.324,0,0,1,5.928.4,6.85,6.85,0,0,1,5.664,6.455,10.538,10.538,0,0,1-.79,6.191,7.772,7.772,0,0,1-6.85,4.347h-8.3c-.79,0-.79-.4-.659-.922s-.132-1.054.659-.922h1.317c.527,0,.659-.132.659-.659V51.335c0-1.844-.132-.659-.659-.659H49.459c-.4,0-.659-.132-.659-.659a3.952,3.952,0,0,0,0-.659c0-.4.132-.659.659-.659h4.479Zm0,8.826v6.191c0,2.108.132.79.659.79h3.688a5.4,5.4,0,0,0,4.874-4.347,11.065,11.065,0,0,0-.132-5.4,4.347,4.347,0,0,0-3.82-3.557l-4.347-.263c-.659,0-.922.132-.922.79s-.132,3.688-.132,5.664Z" transform="translate(-9.676 -48.385)"/>
        <path id="パス_283" data-name="パス 283" d="M68.344,64.48h1.449c.4,0,.659.132.527.527a3.031,3.031,0,0,0,0,.527c0,.527-.132.659-.659.659h-5.4c-.79,0-.659-.4-.659-.922s-.132-.922.659-.922a3.688,3.688,0,0,0,2.108-.132c.527-.263.527-1.186.79-1.844L71.111,51.7l.263-1.054H69.266c-.922,0-.922,0-.922-.922s0-.922.922-.922h3.952a.922.922,0,0,1,1.054.659l4.742,13.832c.4,1.054.4,1.054,1.449,1.054h.79c.922,0,.922,0,.922.922s-.132.922-.922.922H75.985c-.79,0-.659-.4-.79-.922s0-.922.79-.922h.263c.79,0,.922-.132.659-.922a12.645,12.645,0,0,0-.527-1.581.922.922,0,0,0-.659-.527H70.057l-.659.263Zm7.113-4.874-2.371-7.772h-.263l-2.635,7.64Z" transform="translate(-4.982 -48.356)"/>
        <path id="パス_284" data-name="パス 284" d="M33.8,58.129c0-3.293.659-5.8,2.766-7.64a7.9,7.9,0,0,1,6.191-1.976c3.952.263,7.113,3.425,7.245,8.3a15.807,15.807,0,0,1-.4,4.084,7.509,7.509,0,0,1-6.718,5.928,7.772,7.772,0,0,1-8.036-4.347A9.748,9.748,0,0,1,33.8,58.129Zm2.371-.527h-.132A31.22,31.22,0,0,0,36.7,61.29c.79,2.635,2.635,3.688,5.8,3.688a5.006,5.006,0,0,0,4.742-3.82,12.646,12.646,0,0,0,.132-6.586A5.269,5.269,0,0,0,45,51.147a6.06,6.06,0,0,0-3.557-.659,4.742,4.742,0,0,0-4.215,2.5A8.694,8.694,0,0,0,36.171,57.6Z" transform="translate(-14.436 -48.461)"/>
        <path id="パス_285" data-name="パス 285" d="M111.4,57.97c0-3.03.659-5.533,2.635-7.377a7.772,7.772,0,0,1,6.323-1.976c3.952.263,6.85,3.425,7.245,7.772a11.592,11.592,0,0,1-1.054,6.323,7.245,7.245,0,0,1-6.06,4.215,7.9,7.9,0,0,1-5.8-1.449,8.3,8.3,0,0,1-3.161-5.664A10.761,10.761,0,0,1,111.4,57.97Zm2.239-.263a30.3,30.3,0,0,0,.79,3.82c.922,2.5,2.635,3.557,5.8,3.425a5.006,5.006,0,0,0,4.611-3.688,12.514,12.514,0,0,0,.4-5.137c-.263-2.9-1.844-5.928-5.928-5.8a5.006,5.006,0,0,0-4.874,3.425,35.963,35.963,0,0,0-.922,3.952Z" transform="translate(10.187 -48.434)"/>
        <path id="パス_286" data-name="パス 286" d="M104.486,48.9h6.85c.659,0,.79.263.79.79v3.162c0,1.054-.132.79-.79.79s-1.317.132-1.317-1.317.263-1.581-1.581-1.581H106.2c-.4,0-.527.132-.527.527V63.917c0,.4.132.527.527.527h1.712c.4,0,.659.132.527.527s0,.263,0,.4a.848.848,0,0,1-.922.922h-6.323c-.79,0-.659-.527-.659-1.054s0-.922.659-.79h1.449c.527,0,.79-.132.79-.659V51.535c0-2.371-.132-.79-.79-.79h-3.03c-.527,0-.659.132-.659.659a10.013,10.013,0,0,1,0,1.712c0,.132-.263.4-.527.527h0c-1.976,0-1.581.263-1.712-1.581a12.676,12.676,0,0,1,0-2.371c0-.79.132-.79.79-.79Z" transform="translate(5.508 -48.321)"/>
        <path id="パス_287" data-name="パス 287" d="M84.528,66.32H81.367c-.527,0-.659-.132-.659-.659V65c0-.132.263-.4.527-.527h1.712c.4,0,.659-.132.659-.659V51.3c0-.527-.263-.659-.659-.659H81.235c-.4,0-.659-.132-.527-.527a2.371,2.371,0,0,0,0-.527c-.132-.659.132-.79.79-.79h6.323c.79,0,.79.4.79.922s0,.922-.79.922-1.976,0-1.976,1.976V63.685c0,.659.132.79.79.79h1.449c.4,0,.659.132.527.527a3.029,3.029,0,0,0,0,.527c0,.527-.132.659-.659.659Z" transform="translate(0.437 -48.353)"/>
      </g>
      <g id="グループ_42" data-name="グループ 42" transform="translate(45.974 124.748)">
        <path id="パス_288" data-name="パス 288" d="M34.9,100.594V99.54h.922v-.4a1.713,1.713,0,0,1,.527-1.317A1.976,1.976,0,0,1,37.8,97.3h.79v1.186h-.922a.79.79,0,0,0-.132.527v.527h1.054v1.054H37.535v4.874H35.954v-4.874Z" transform="translate(-34.9 -93.876)"/>
        <path id="パス_289" data-name="パス 289" d="M39.881,99.032v1.054h0l.263-.527.4-.4.527-.263h.922v1.449H40.671l-.527.4-.263.659a3.293,3.293,0,0,0-.132.79v2.635H38.3v-5.8Z" transform="translate(-33.821 -93.367)"/>
        <path id="パス_290" data-name="パス 290" d="M41.563,100.644a2.766,2.766,0,0,1,.659-.922l.922-.659,1.317-.263,1.317.263.922.659a2.766,2.766,0,0,1,.659.922,3.425,3.425,0,0,1,0,2.635,2.766,2.766,0,0,1-.659.922l-.922.659-1.317.263-1.317-.263-.922-.659a2.766,2.766,0,0,1-.659-.922,3.425,3.425,0,0,1,0-2.635Zm1.449,1.976.263.659.4.4h1.317l.4-.4.263-.659a3.425,3.425,0,0,0,.132-.659,3.557,3.557,0,0,0-.132-.659l-.263-.659-.4-.4H43.671l-.4.4-.263.659a3.557,3.557,0,0,0-.132.659,3.424,3.424,0,0,0,.132.659Z" transform="translate(-32.869 -93.399)"/>
        <path id="パス_291" data-name="パス 291" d="M48.381,99.032v.79h0l.79-.659,1.054-.263,1.054.263a1.449,1.449,0,0,1,.659.79L52.6,99.3l1.054-.263h.922l.659.4.4.659a2.635,2.635,0,0,1,.132.922v3.952H54.177v-4.215l-.263-.263H52.86l-.4.4v.527a3.556,3.556,0,0,0,0,.527v3.293H50.488V101.4a1.449,1.449,0,0,0-.132-.527l-.263-.4H48.776l-.263.4a1.712,1.712,0,0,0-.132.659v3.425H46.8V99.032Z" transform="translate(-31.124 -93.367)"/>
        <path id="パス_292" data-name="パス 292" d="M64.593,106.16a6.85,6.85,0,0,1-7.772,0,4.742,4.742,0,0,1-1.317-3.688V94.7H58.27v7.772a5.664,5.664,0,0,0,.132,1.054,1.976,1.976,0,0,0,.4.922l.79.659,1.317.263a2.5,2.5,0,0,0,1.976-.659,3.162,3.162,0,0,0,.527-1.976V94.7h2.766v7.772A4.742,4.742,0,0,1,64.593,106.16Z" transform="translate(-28.368 -94.7)"/>
        <path id="パス_293" data-name="パス 293" d="M64.5,97.071V94.7H74.643v2.239H70.955v10.143H68.188V97.071Z" transform="translate(-25.508 -94.7)"/>
        <path id="パス_294" data-name="パス 294" d="M71.5,100a4.084,4.084,0,0,1,2.371-2.5l1.976-.4,1.976.4a4.084,4.084,0,0,1,2.371,2.5,5.533,5.533,0,0,1,.4,1.976,5.4,5.4,0,0,1-.4,1.976,4.215,4.215,0,0,1-.922,1.449,4.083,4.083,0,0,1-1.449.922l-1.976.4-1.976-.4a4.084,4.084,0,0,1-1.449-.922,4.216,4.216,0,0,1-.922-1.449,5.4,5.4,0,0,1-.4-1.976A5.533,5.533,0,0,1,71.5,100Zm2.239,3.03a2.766,2.766,0,0,0,.4.922l.659.659,1.054.263,1.054-.263.659-.659a2.767,2.767,0,0,0,.4-.922,5.269,5.269,0,0,0,.132-1.054,5.4,5.4,0,0,0-.132-1.054,2.766,2.766,0,0,0-.4-.922l-.659-.659-1.054-.263-1.054.263L74.13,100a2.634,2.634,0,0,0-.4.922,5.4,5.4,0,0,0-.132,1.054,5.268,5.268,0,0,0,.132.922Z" transform="translate(-23.414 -93.938)"/>
        <path id="パス_295" data-name="パス 295" d="M81.771,94.7v6.718l3.162-3.293h2.9l-3.425,3.293,3.82,5.664H85.2l-2.5-3.952-.922.922v3.03H79.4V94.7Z" transform="translate(-20.78 -94.7)"/>
        <path id="パス_296" data-name="パス 296" d="M90.547,108.992a3.557,3.557,0,0,1-1.976.527H87.122v-1.976h1.449a.922.922,0,0,0,.659-.4,1.186,1.186,0,0,0,.263-.79,1.449,1.449,0,0,0-.132-.527L86.2,97.4h2.635l1.976,6.191h0L92.786,97.4h2.5l-3.557,10.011a3.03,3.03,0,0,1-1.186,1.581Z" transform="translate(-18.623 -93.843)"/>
        <path id="パス_297" data-name="パス 297" d="M93.5,100a4.084,4.084,0,0,1,2.371-2.5l1.976-.4,1.976.4a4.084,4.084,0,0,1,2.371,2.5,5.533,5.533,0,0,1,.4,1.976,5.4,5.4,0,0,1-.4,1.976,4.215,4.215,0,0,1-.922,1.449,4.084,4.084,0,0,1-1.449.922l-1.976.4-1.976-.4a4.084,4.084,0,0,1-1.449-.922,4.216,4.216,0,0,1-.922-1.449,5.4,5.4,0,0,1-.4-1.976A5.533,5.533,0,0,1,93.5,100Zm2.239,3.03a2.767,2.767,0,0,0,.4.922l.659.659,1.054.263,1.054-.263.659-.659a2.766,2.766,0,0,0,.4-.922,5.269,5.269,0,0,0,.132-1.054,5.4,5.4,0,0,0-.132-1.054,2.766,2.766,0,0,0-.4-.922l-.659-.659-1.054-.263-1.054.263L96.13,100a2.634,2.634,0,0,0-.4.922,5.4,5.4,0,0,0-.132,1.054,5.269,5.269,0,0,0,.132.922Z" transform="translate(-16.433 -93.938)"/>
      </g>
    </g>
  </g>
</svg>
