<?xml version="1.0" encoding="utf-8"?>
<!-- Generator: Adobe Illustrator 24.1.0, SVG Export Plug-In . SVG Version: 6.00 Build 0)  -->
<svg version="1.1" id="レイヤー_1" xmlns="http://www.w3.org/2000/svg" xmlns:xlink="http://www.w3.org/1999/xlink" x="0px"
	 y="0px" viewBox="0 0 453.5 453.5" style="enable-background:new 0 0 453.5 453.5;" xml:space="preserve">
<style type="text/css">
	.st0{fill:#FFFFFF;}
</style>
<path class="st0" d="M56.4,41.6c5.4,0.7,10.1,0.7,15.5,0.7h310.3c14.8,0,14.8,0,14.8,14.1c0,35,0,70.7,0,105.7
	c0,8.8-2.7,12.1-11.4,11.4c-15.5-0.7-30.3-0.7-45.8,0c-8.1,0-10.8-2.7-10.1-10.8c0.7-14.1,0-28.3,0-42.4c0-8.8-3.4-12.1-12.1-12.1
	c-13.5,0.7-27.6,0-41.1,0c-6.7,0-9.4,2.7-9.4,9.4c0,72.7,0,144.7,0,217.4c0,7.4,3.4,9.4,10.1,9.4c10.1,0,20.9,0,31,0
	c8.1-0.7,10.8,2.7,10.1,10.1c-0.7,15.5,0,31,0,47.1c0,6.7-2,10.1-9.4,10.1c-54.5,0-109.7,0-164.3,0c-7.4,0-10.1-2.7-9.4-10.1
	c0-16.2,0-32.3,0-47.8c0-7.4,3.4-9.4,10.1-9.4c10.8,0,21.5,0,32.3,0c6.7,0,9.4-2.7,9.4-9.4c0-72.7,0-144.7,0-217.4
	c0-6.7-2-9.4-8.8-9.4c-14.1,0-28.3,0-42.4,0c-6.7,0-9.4,2.7-8.8,9.4c0.7,14.1,0,28.9,0,43.8c0,8.8-2.7,11.4-11.4,11.4
	c-19.5,0-39,0.7-59.2,0.7L56.4,41.6z"/>
</svg>
