<?xml version="1.0" encoding="UTF-8" standalone="no"?>
<!-- Generator: Adobe Illustrator 24.1.0, SVG Export Plug-In . SVG Version: 6.00 Build 0)  -->
<svg style="enable-background:new 0 0 453.5 453.5" xmlns="http://www.w3.org/2000/svg" xml:space="preserve" version="1.1" y="0px" x="0px" xmlns:xlink="http://www.w3.org/1999/xlink" viewBox="0 0 453.5 453.5">
<style type="text/css">
	.st0{fill:#FFFFFF;}
</style>
<path class="st0" d="m60.9 220.8c0.8 0.1 1.5 0.1 2.3 0.1h46.1c2.2 0 2.2 0 2.2 2.1v15.7c0 1.3-0.4 1.8-1.7 1.7-2.3-0.1-4.5-0.1-6.8 0-1.2 0-1.6-0.4-1.5-1.6 0.1-2.1 0-4.2 0-6.3 0-1.3-0.5-1.8-1.8-1.8-2 0.1-4.1 0-6.1 0-1 0-1.4 0.4-1.4 1.4v32.3c0 1.1 0.5 1.4 1.5 1.4h4.6c1.2-0.1 1.6 0.4 1.5 1.5-0.1 2.3 0 4.6 0 7 0 1-0.3 1.5-1.4 1.5h-24.4c-1.1 0-1.5-0.4-1.4-1.5v-7.1c0-1.1 0.5-1.4 1.5-1.4h4.8c1 0 1.4-0.4 1.4-1.4v-32.3c0-1-0.3-1.4-1.3-1.4h-6.3c-1 0-1.4 0.4-1.3 1.4 0.1 2.1 0 4.3 0 6.5 0 1.3-0.4 1.7-1.7 1.7-2.9 0-5.8 0.1-8.8 0.1v-19.6z"/>
<path class="st0" d="m60.9 157.5c0.8 0 1.5 0.1 2.3 0.1h32.7c1.6 0 2.1 0.5 2 2.1-0.1 2.5-0.1 5.1 0 7.6 0 1.3-0.5 1.7-1.7 1.7-3.8-0.1-3.2 0.4-3.3-3.3-0.1-4.2 0.5-3.7-3.7-3.7h-5.5c-1.1 0-1.5 0.4-1.4 1.5v0.2l-0.3 29.1c0 2.4 0 2.4 2.4 2.4h3.2s1.4 0.4 1.3 1.4c0 0.5 0 1 0.1 1.5 0.1 1.2-0.4 1.5-1.6 1.5h-15.8c-1.2 0-1.8-0.3-1.7-1.6v-1.3c-0.1-1.1 0.3-1.5 1.4-1.5s2.3-0.1 3.5 0c1.4 0.1 1.8-0.4 1.8-1.8-0.1-5.5-0.1-11 0-16.6 0-4.2 0.1-8.5 0.3-12.7 0.1-1.6-0.5-2.2-2.1-2.1-2.4 0.1-4.8 0.1-7.1 0-1.2 0-1.7 0.5-1.7 1.7s-0.1 2.4 0 3.6-0.5 1.7-1.7 1.7-2.3 0.1-3.5 0.1l0.1-11.6z"/>
<path class="st0" d="m226.3 242.1l9.3-10.6-0.3-0.6h-3s-1.3-0.4-1.3-1.3v-7.4c0-0.9 0.4-1.3 1.3-1.3h22.2c1 0 1.4 0.3 1.4 1.3v7.3c0 1-0.4 1.4-1.4 1.4-1.8-0.1-3.5-0.1-5.3 0.1-0.9 0.1-1.8 0.5-2.5 1.2-4.2 5.1-8.3 10.3-12.5 15.5-0.7 0.6-0.8 1.7-0.2 2.5l0.2 0.2c4.1 4.9 8.1 9.9 12.3 14.8 0.5 0.5 1.1 0.8 1.8 0.8 2.5 0.1 5 0.1 7.5 0 1.4 0 1.8 0.5 1.8 1.8-0.1 2.3 0 4.5 0 6.8 0 1-0.4 1.4-1.4 1.4h-24.9c-1 0-1.4-0.3-1.4-1.3v-7.3c0-1 0.4-1.4 1.4-1.3s2.1 0 3.4 0c-0.2-0.5-0.4-0.9-0.7-1.3-2.1-2.5-4.3-5.1-6.4-7.6-0.6-0.7-1.1-1-1.7-0.2l-7.4 8.3c-0.1 0.2-0.2 0.4-0.2 0.6 0.4 0.1 0.8 0.1 1.2 0.2 2.1 0.1 2.1 0.1 2.1 2.2s0 4.1 0 6.1c0 1.1-0.3 1.6-1.5 1.6h-22.7c-1.1 0-1.5-0.4-1.4-1.5 0-2.3 0.1-4.6 0-7 0-1.3 0.5-1.6 1.7-1.6 2.3 0.1 4.5 0.1 6.8 0 0.7-0.1 1.4-0.4 1.9-0.9 4.1-4.9 8.2-9.9 12.3-14.8 0.7-0.6 0.8-1.6 0.2-2.3l-0.2-0.2c-4.4-5.2-8.8-10.5-13.3-15.7-0.6-0.6-1.4-1-2.2-1.1-1.7-0.1-3.3-0.1-5 0-1 0-1.5-0.3-1.5-1.4v-7.1c0-1.1 0.4-1.5 1.4-1.5h22.7c1.1 0 1.4 0.4 1.4 1.5-0.1 2.4-0.1 4.8 0 7.1 0 1.1-0.5 1.5-1.5 1.4s-2.1 0-3.1 0l-0.3 0.6 9 10.6z"/>
<path class="st0" d="m177.5 238c-3 1-5.7 1.9-8.5 2.9-1 0.4-1.2-0.2-1.5-1-0.8-2.5-1.7-5-2.5-7.5-0.2-0.9-1-1.6-2-1.5h-12.9c-1.3 0-1.8 0.5-1.7 1.8 0.1 2.9 0.1 5.7 0 8.6 0 1.4 0.4 1.9 1.8 1.8 3.9-0.1 7.8 0 11.6 0 1.4 0 2 0.3 1.9 1.9-0.1 2.2-0.1 4.4 0 6.6 0 1.2-0.4 1.5-1.6 1.5h-12.1c-1.2 0-1.7 0.4-1.7 1.6 0.1 3.2 0.1 6.5 0 9.8 0 1.1 0.4 1.6 1.6 1.5h15.8c0.9 0.1 1.7-0.6 1.9-1.5 0.9-2.5 1.8-5.1 2.8-7.8l9.4 3.3c-0.3 0.9-0.6 1.8-0.9 2.6-1.3 3.9-2.7 7.7-4 11.6-0.2 1.2-1.3 2-2.4 1.8-13.9-0.1-27.8-0.1-41.6 0-1.5 0-2-0.4-1.9-1.9 0.1-2.1 0.1-4.2 0-6.3-0.1-1.3 0.3-1.9 1.8-1.8s2.8 0 4.1 0 1.8-0.5 1.8-1.9v-31.5c0-1.3-0.4-1.8-1.7-1.8-1.5 0.1-3.1 0-4.6 0-0.9 0-1.3-0.4-1.3-1.3v-7.4c0-1.2 0.7-1.3 1.6-1.3h15.6 23.6c1.4 0 2.2 0.4 2.6 1.8 1.4 4.5 3 9 4.5 13.5 0.2 0.6 0.3 1.2 0.5 1.9z"/>
<path class="st0" d="m369 278.1c-6.1 0-12.1-0.9-18-2.8-1.4-0.4-2.2-1-2.3-2.7-0.2-3-0.8-6-1.2-9-0.3-1.8 0-2.1 1.8-2.3 2.1-0.2 4.2-0.4 6.2-0.8 1.1-0.2 1.4 0.3 1.5 1.1 0.2 0.8 0.3 1.6 0.3 2.5-0.2 2.1 1.1 2.5 2.7 3 4.3 1.1 8.7 1.7 13.1 0.8 3.4-0.7 6.9-1.7 7.9-5.6 1-3.7 0.1-6-3.6-6.9s-7.2-1.4-10.9-2c-4.5-0.8-9-1.8-12.7-4.8-3.3-2.6-5.2-6.6-5.4-10.8-0.4-5.3 0.6-10.1 4.6-13.9 2.8-2.6 6.3-4.2 10.1-4.6 7.8-1.1 15.7-0.3 23.2 2.3 1.2 0.2 2 1.2 2.1 2.4 0.4 3.8 1 7.6 1.5 11.4 0.1 1-0.2 1.4-1.3 1.4-2.5 0.2-5 0.4-7.4 0.8-1.2 0.2-1.5-0.3-1.6-1.3-0.2-1.8-0.5-3.5-0.7-5.2-0.1-1.1-0.5-2-1.9-2-4.1-0.1-8.1-0.2-12.2-0.2-0.6 0-1.2 0.2-1.8 0.5-2.1 0.9-3.8 2.1-4 4.6-0.3 2.3 1.1 4.5 3.2 5.3 2.9 1 5.8 1.9 8.9 2.5 3.6 0.9 7.3 1.3 10.8 2.4 8.1 2.7 11.1 9.4 10.4 17.6-0.9 9.8-8 14.6-16.4 15.8-2.1 0.3-4.5 0.4-6.9 0.5z"/>
<path class="st0" d="m312.7 266c-0.9-3-1.7-5.6-2.6-8.1-0.1-0.3-0.9-0.4-1.3-0.4h-12.9c-0.5 0-1.3 0.2-1.4 0.6-0.9 2.5-1.6 5.1-2.6 8h3.7s1.5 0.3 1.5 1.4c-0.1 2.4 0 4.9 0 7.3 0 0.9-0.4 1.3-1.3 1.3-7.4 0-14.7 0-22.1-0.1-0.6-0.1-1-0.5-1.2-1.1-0.1-2.5 0-5.1-0.1-7.6 0-1 0.5-1.2 1.4-1.2h6.5c0.9 0.1 1.8-0.5 1.9-1.4 3.7-10.7 7.4-21.3 11.1-32 0.5-1.3 0-1.7-1.2-1.7h-4.3c-1 0-1.4-0.3-1.4-1.3v-7.3c0-1 0.3-1.4 1.3-1.4h19.7c1.4 0 1.6 1 1.9 1.9 3.1 8.9 6.2 17.8 9.2 26.8 1.7 4.9 3.4 9.8 5 14.7 0.2 1.2 1.3 2 2.5 1.8h0.1c1.6-0.1 3.3 0 5 0 1.1 0 1.5 0.4 1.4 1.5v7.1c0 1-0.3 1.4-1.4 1.4h-21.9c-1 0-1.4-0.4-1.4-1.4 0-2.4 0.1-4.8 0-7.1 0-1.2 0.5-1.5 1.6-1.5 1.1-0.2 2-0.2 3.3-0.2zm-4.7-16c-1.8-6.1-3.5-11.9-5.2-17.8l-0.6 0.1c-1.8 5.8-3.5 11.7-5.4 17.7h11.2z"/>
<path class="st0" d="m167.4 157.3c4.7 0.3 9.5 0.2 14.2 1.1 8.2 1.4 13 7.2 14 15.5 0.6 5.1 0.6 10.1-1.8 14.9-3.5 6.9-9.3 10.2-16.8 10.6-6.6 0.4-13.3 0-19.9 0.1-1.8 0-1.8-1-1.7-2.2s-0.2-2.4 1.7-2.2c1.1 0.1 2.2 0 3.3 0 1.3 0.1 1.7-0.4 1.7-1.7-0.1-5.6 0-11.3 0-16.9v-12.9c0-1.2-0.4-1.7-1.6-1.6s-2.4 0-3.6 0-1.6-0.4-1.5-1.4v-1.5c-0.1-1.1 0.4-1.5 1.5-1.4h10.6l-0.1-0.4zm-0.1 21.1v14.9c0 1.2 0.3 1.9 1.7 1.8 2.9-0.2 5.9-0.1 8.8-0.4 5.8-0.4 10.7-4.7 11.8-10.4 1-4.3 0.9-8.8-0.3-13.1-1.2-4.8-4.2-8-9.3-8.6-3.5-0.4-7-0.4-10.6-0.6-1.6-0.1-2.1 0.4-2.1 2 0.1 4.8 0 9.6 0 14.4z"/>
<path class="st0" d="m213.6 195.1h3.4s1.4 0.4 1.4 1.4v1.3c0.1 1.3-0.4 1.7-1.7 1.7-4.3-0.1-8.6-0.1-12.9 0-1.9 0-1.7-1.1-1.7-2.3s-0.2-2.2 1.6-2.2 3.8 0.4 4.9-0.5 1.4-2.9 2-4.4c3.2-8.5 6.3-17.1 9.4-25.6 0.3-0.7 0.4-1.4 0.8-2.6h-5.2c-2.2 0-2.2 0-2.2-2.1s0-2.2 2.3-2.2c3.2 0 6.4 0.1 9.6 0 1.2-0.2 2.3 0.6 2.5 1.7 3.8 11.1 7.7 22.2 11.5 33.3 0.9 2.4 0.8 2.4 3.5 2.5h1.8c2.3 0 2.2 0 2.3 2.2 0.1 1.7-0.4 2.2-2.1 2.1-4.4-0.1-8.7-0.1-13.1 0-2 0.1-1.7-1.1-1.8-2.3s0.1-2.4 1.8-2.1h0.7c2 0 2.1-0.2 1.4-2.1-0.4-1.3-0.8-2.6-1.4-3.9-0.4-0.6-1-1.1-1.7-1.2-4.4-0.1-8.9-0.1-13.3 0-0.6 0-1.1 0.3-1.4 0.8-0.7 2-1.4 4-2.4 6.5zm17-11.7c-1.9-6.3-3.8-12.4-5.7-18.6l-0.6 0.1c-2.1 6.1-4.1 12.2-6.3 18.5h12.6z"/>
<path class="st0" d="m107.5 179.6c0-7.8 1.6-13.8 6.6-18.4 4.2-3.8 9.2-5 14.8-4.7 9.4 0.6 17.2 8.2 17.5 20 0.1 3.3-0.2 6.6-0.9 9.8-1.7 7.8-8.3 13.6-16.3 14.2-8.4 0.9-15.8-3-19.4-10.5-1.5-3.2-2.3-6.8-2.3-10.4zm5.7-1.2l-0.4 0.1c0.4 3 0.9 5.9 1.7 8.9 2 6.2 6.3 8.9 13.9 8.7 5.4-0.1 9.7-3.6 11.4-9.2 1.5-5.2 1.6-10.7 0.2-16-0.7-3.4-2.7-6.4-5.7-8.2-2.6-1.6-5.5-1.8-8.5-1.7-4.3-0.1-8.3 2.3-10.3 6.1-1.8 3.5-2.6 7.4-2.3 11.3z"/>
<path class="st0" d="m353.5 179.3c0.1-7.2 1.5-13.2 6.4-17.9 4.2-4 9.3-5.2 15.1-4.9 9.6 0.7 16.5 8.3 17.5 18.7 0.7 5.2-0.2 10.5-2.4 15.3-3 5.9-7.8 9.2-14.4 10-5 0.8-10-0.5-14.1-3.5-4.6-3.4-6.7-8.2-7.6-13.6-0.4-1.6-0.5-3.3-0.5-4.1zm5.2-0.8c0.6 3.1 0.9 6.3 1.9 9.2 2.1 6.1 6.4 8.6 14 8.4 5.1-0.1 9.4-3.5 11.1-8.9 1.2-4 1.6-8.2 1-12.4-0.7-7.1-4.4-14.3-14.4-13.8-5.6 0.3-10 3-11.7 8.3-0.8 3-1.4 6.1-1.9 9.2z"/>
<path class="st0" d="m325.6 157.6h16.4c1.6 0 2 0.5 2 2-0.1 2.5-0.1 5 0 7.4 0 1.4-0.3 2-1.8 1.9-3.6-0.1-3.1 0.3-3.2-3.2-0.1-4.3 0.6-3.7-3.8-3.8h-5.5c-1 0-1.4 0.4-1.4 1.4v30.5c0 0.9 0.4 1.3 1.3 1.3h4c1 0 1.5 0.3 1.4 1.3v0.8c0 2.2 0 2.2-2.2 2.2-5 0-10.1-0.1-15.1 0-2 0-1.6-1.2-1.7-2.4s0.1-2.2 1.7-2c1.1 0.1 2.3 0 3.5 0 1.3 0.1 1.8-0.5 1.8-1.7v-12.3-17.2c0-1.4-0.4-2-1.9-1.9-2.4 0.1-4.8 0.1-7.1 0-1.2 0-1.7 0.3-1.6 1.6 0.1 1.4 0.1 2.8 0 4.1 0 0.4-0.7 0.8-1.1 1.2h-0.2c-4.8-0.1-3.9 0.6-4-3.7 0-1.9 0.1-3.9 0-5.8-0.1-1.4 0.4-1.8 1.8-1.8 5.5 0.2 11.1 0.1 16.7 0.1z"/>
<path class="st0" d="m265.6 199.5h-7.8c-1.2 0-1.6-0.4-1.5-1.6 0-0.5-0.1-1.2 0-1.6s0.7-1.1 1.2-1.1c1.4-0.1 2.8-0.1 4.1-0.1 1.1 0 1.6-0.3 1.6-1.5v-30.1c0-1.2-0.5-1.5-1.6-1.5-1.3 0.1-2.7 0-4 0-1 0-1.5-0.4-1.4-1.4v-1.2c-0.2-1.4 0.4-1.9 1.9-1.9 5.1 0.1 10.2 0.1 15.2 0 1.9 0 1.9 0.9 1.9 2.2s-0.1 2.2-1.9 2.2c-4.8-0.1-4.8 0-4.8 4.7v26.5c0 1.4 0.4 2 1.9 1.9 1.1-0.1 2.3 0 3.5 0 1 0 1.4 0.4 1.4 1.4v1.3c0.1 1.3-0.4 1.7-1.7 1.7-2.7 0-5.4 0.1-8 0.1z"/>
<path class="st0" d="m123.4 318.9v-2.6h2.3v-1.1c0-1.2 0.4-2.3 1.2-3.1 1-0.9 2.3-1.3 3.6-1.2h1l1 0.1v3c-0.5-0.1-1-0.1-1.4-0.1s-0.8 0.1-1.1 0.4c-0.3 0.4-0.4 0.8-0.3 1.2v0.9h2.7v2.6h-2.7v11.6h-3.9v-11.6l-2.4-0.1z"/>
<path class="st0" d="m137.7 316.3v2.7h0.1c0.4-0.9 1-1.6 1.8-2.2 0.4-0.3 0.8-0.5 1.3-0.6s0.9-0.2 1.4-0.2c0.3 0 0.6 0.1 0.9 0.1v3.6c-0.2 0-0.4-0.1-0.7-0.1s-0.5 0-0.7 0c-0.6 0-1.2 0.1-1.8 0.4-0.5 0.2-0.9 0.6-1.2 1s-0.5 0.9-0.6 1.4c-0.1 0.6-0.2 1.2-0.2 1.8v6.4h-4v-14.3h3.7z"/>
<path class="st0" d="m144.3 320.4c0.6-1.8 2-3.2 3.8-3.9 1-0.4 2-0.6 3-0.5 1 0 2 0.2 3 0.5 0.9 0.3 1.7 0.8 2.3 1.5 0.7 0.7 1.2 1.5 1.5 2.4 0.4 1 0.5 2 0.5 3.1 0 1-0.2 2.1-0.5 3.1-0.3 0.9-0.8 1.7-1.5 2.4s-1.4 1.2-2.3 1.5c-1 0.4-2 0.5-3 0.5s-2-0.2-3-0.5c-0.9-0.3-1.7-0.8-2.3-1.5-0.7-0.7-1.2-1.5-1.5-2.4-0.4-1-0.5-2-0.5-3.1-0.1-1.1 0.1-2.2 0.5-3.1zm3.5 4.7c0.1 0.5 0.3 1 0.6 1.5 0.3 0.4 0.6 0.8 1.1 1 0.5 0.3 1.1 0.4 1.6 0.4 0.6 0 1.2-0.1 1.7-0.4 0.4-0.2 0.8-0.6 1.1-1s0.5-0.9 0.6-1.5c0.1-0.5 0.2-1.1 0.2-1.7s-0.1-1.1-0.2-1.7c-0.1-0.5-0.3-1-0.6-1.5-0.3-0.4-0.6-0.8-1.1-1-0.5-0.3-1.1-0.4-1.7-0.4s-1.1 0.1-1.6 0.4c-0.4 0.2-0.8 0.6-1.1 1s-0.5 0.9-0.6 1.5c-0.1 0.5-0.2 1.1-0.2 1.7s0.1 1.2 0.2 1.7z"/>
<path class="st0" d="m164.7 316.3v1.9h0.1c0.5-0.7 1.1-1.3 1.9-1.7s1.6-0.6 2.5-0.6c0.8 0 1.7 0.2 2.5 0.5 0.8 0.4 1.4 1 1.7 1.8 0.5-0.7 1-1.2 1.7-1.6 0.8-0.5 1.7-0.7 2.6-0.7 0.7 0 1.4 0.1 2.1 0.3 1.3 0.3 2.3 1.2 2.7 2.5 0.3 0.8 0.4 1.6 0.4 2.4v9.5h-3.9v-8c0-0.5 0-0.9-0.1-1.3 0-0.4-0.1-0.8-0.3-1.1s-0.4-0.6-0.7-0.7c-0.4-0.2-0.8-0.3-1.3-0.3s-0.9 0.1-1.3 0.3c-0.3 0.2-0.6 0.5-0.8 0.8-0.2 0.4-0.3 0.7-0.4 1.1s-0.1 0.9-0.1 1.3v7.9h-4v-8-1.2c0-0.4-0.1-0.8-0.2-1.1s-0.4-0.6-0.7-0.8c-0.4-0.2-0.9-0.3-1.4-0.3-0.2 0-0.5 0.1-0.7 0.1-0.3 0.1-0.6 0.3-0.9 0.5-0.3 0.3-0.6 0.6-0.7 1-0.2 0.5-0.3 1.1-0.3 1.7v8.2h-3.9v-14.2h3.5v-0.2z"/>
<path class="st0" d="m210.5 330.5c-2.3 2-5.4 3-9.4 3s-7.1-1-9.4-2.9c-2.2-2-3.3-5-3.3-9v-18.6h6.6v18.6c0 0.8 0.1 1.6 0.2 2.4 0.2 1.6 1.3 2.9 2.7 3.5 1 0.4 2.1 0.6 3.2 0.6 2.3 0 3.9-0.5 4.9-1.6 1-1.4 1.5-3.2 1.3-4.9v-18.6h6.6v18.6c0 3.9-1.2 6.9-3.4 8.9z"/>
<path class="st0" d="m217.1 308.4v-5.5h24.5v5.5h-8.9v24.3h-6.6v-24.3h-9z"/>
<path class="st0" d="m239.1 317.3c1-2.7 3.1-4.9 5.8-5.9 1.5-0.6 3-0.8 4.6-0.8s3.1 0.3 4.6 0.8c2.7 1 4.8 3.2 5.8 5.9 0.5 1.5 0.8 3.1 0.8 4.7s-0.2 3.2-0.8 4.7c-0.5 1.3-1.3 2.6-2.3 3.6s-2.2 1.8-3.5 2.3c-1.5 0.5-3 0.8-4.6 0.8s-3.1-0.2-4.6-0.8c-1.3-0.5-2.5-1.3-3.5-2.3s-1.8-2.2-2.3-3.6c-0.5-1.5-0.8-3.1-0.8-4.7-0.1-1.6 0.2-3.2 0.8-4.7zm5.3 7.2c0.2 0.8 0.4 1.5 0.9 2.2 0.4 0.7 0.9 1.2 1.6 1.6 0.8 0.4 1.6 0.6 2.5 0.6s1.7-0.2 2.5-0.6c0.7-0.4 1.2-0.9 1.6-1.6s0.7-1.4 0.9-2.2 0.3-1.7 0.2-2.5c0-0.9-0.1-1.7-0.2-2.5s-0.4-1.5-0.9-2.2c-0.4-0.6-1-1.2-1.6-1.6-0.8-0.4-1.6-0.6-2.5-0.6-1.7-0.1-3.2 0.8-4.1 2.2-0.4 0.7-0.7 1.4-0.9 2.2s-0.3 1.7-0.2 2.5c0 0.8 0.1 1.7 0.2 2.5z"/>
<path class="st0" d="m270.1 302.9v16l7.5-7.8h7l-8.1 7.9 9.1 13.7h-7.2l-5.9-9.6-2.3 2.2v7.4h-5.9v-29.8h5.8z"/>
<path class="st0" d="m296.4 339.2c-1.4 0.8-3.1 1.2-4.8 1.1-0.6 0-1.2 0-1.8-0.1l-1.8-0.1v-4.9l1.7 0.2h1.8c0.7 0 1.3-0.4 1.7-0.9s0.6-1.1 0.6-1.8c0-0.5-0.1-0.9-0.2-1.3l-7.5-20.2h6.3l4.9 14.8h0.1l4.7-14.8h6.1l-9 24.3c-0.5 1.4-1.5 2.8-2.8 3.7z"/>
<path class="st0" d="m308.6 317.3c1-2.7 3.1-4.9 5.8-5.9 1.5-0.6 3-0.8 4.6-0.8s3.1 0.3 4.6 0.8c2.7 1 4.8 3.2 5.8 5.9 0.5 1.5 0.8 3.1 0.8 4.7s-0.2 3.2-0.8 4.7c-0.5 1.3-1.3 2.5-2.2 3.6-1 1-2.2 1.8-3.5 2.3-1.5 0.5-3 0.8-4.6 0.8s-3.1-0.2-4.6-0.8c-1.3-0.5-2.5-1.3-3.5-2.3s-1.8-2.2-2.3-3.6c-0.5-1.5-0.8-3.1-0.8-4.7-0.1-1.6 0.1-3.2 0.7-4.7zm5.4 7.2c0.1 0.8 0.4 1.5 0.9 2.2 0.4 0.6 1 1.2 1.6 1.6 0.8 0.4 1.6 0.6 2.5 0.6s1.8-0.2 2.5-0.6 1.2-0.9 1.6-1.6 0.7-1.4 0.9-2.2c0.2-0.8 0.3-1.7 0.2-2.5 0-0.9-0.1-1.7-0.2-2.5s-0.4-1.5-0.9-2.2c-0.4-0.6-1-1.2-1.6-1.6-0.8-0.4-1.6-0.6-2.5-0.6s-1.7 0.2-2.5 0.6c-0.7 0.4-1.2 0.9-1.6 1.6s-0.7 1.4-0.9 2.2c-0.2 0.8-0.3 1.7-0.3 2.5 0.1 0.8 0.1 1.7 0.3 2.5z"/>
</svg>
