<svg xmlns="http://www.w3.org/2000/svg" viewBox="0 0 453.54 453.54"><defs><style>.cls-1{fill:#fff;}</style></defs><g id="レイヤー_2" data-name="レイヤー 2"><g id="レイヤー_1-2" data-name="レイヤー 1"><rect class="cls-1" width="453.54" height="453.54"/><path d="M60.94,220.78c.77.06,1.53.15,2.3.15h46.11c2.21,0,2.21,0,2.22,2.15,0,5.25,0,10.49,0,15.73,0,1.31-.41,1.76-1.71,1.71-2.27-.08-4.54-.06-6.8,0-1.17,0-1.57-.41-1.54-1.55.06-2.1,0-4.2,0-6.29,0-1.28-.49-1.8-1.77-1.77-2,.06-4.09,0-6.13,0-1,0-1.38.37-1.38,1.39q0,16.14,0,32.28c0,1.13.49,1.43,1.5,1.4,1.54,0,3.1.05,4.64,0,1.17-.06,1.56.42,1.53,1.55-.06,2.32,0,4.64,0,7,0,1-.32,1.48-1.42,1.48q-12.19,0-24.38,0c-1.09,0-1.47-.39-1.45-1.46,0-2.37,0-4.75,0-7.12,0-1.12.46-1.44,1.49-1.41,1.61.05,3.21,0,4.81,0,1,0,1.37-.35,1.37-1.36q0-16.14,0-32.29c0-1-.35-1.42-1.34-1.42q-3.15,0-6.3,0c-1,0-1.37.42-1.35,1.41.05,2.15,0,4.31,0,6.46,0,1.28-.39,1.74-1.71,1.73-2.92,0-5.85.07-8.77.13Z"/><path d="M60.94,157.5c.77,0,1.54.11,2.31.11,10.89,0,21.79,0,32.68,0,1.6,0,2.13.46,2,2.06-.12,2.53-.09,5.08,0,7.62,0,1.33-.47,1.71-1.74,1.68-3.8-.09-3.22.36-3.27-3.27-.06-4.2.51-3.66-3.72-3.7-1.83,0-3.65,0-5.48,0-1.08,0-1.53.41-1.41,1.47v.17q-.15,14.55-.29,29.12c0,2.36,0,2.36,2.43,2.36,1.05,0,2.1,0,3.15,0s1.42.4,1.35,1.38A10.58,10.58,0,0,0,89,198c.12,1.17-.44,1.52-1.56,1.51q-7.87-.06-15.76,0c-1.18,0-1.79-.33-1.65-1.59a8.31,8.31,0,0,0,0-1.32c-.09-1.05.33-1.53,1.43-1.48s2.33-.05,3.48,0c1.36.1,1.82-.39,1.8-1.78q-.09-8.28,0-16.56c0-4.24.14-8.48.29-12.72.06-1.58-.48-2.17-2.09-2.1-2.37.11-4.76.07-7.13,0-1.23,0-1.71.47-1.67,1.66s-.06,2.43,0,3.64S65.67,169,64.4,169s-2.31.09-3.46.14Z"/><path d="M226.33,242.12l9.3-10.57-.26-.62c-1,0-2,0-3,0s-1.3-.38-1.29-1.29q0-3.72,0-7.45c0-.92.39-1.27,1.3-1.27q11.11,0,22.23,0c1,0,1.4.33,1.39,1.34q-.06,3.64,0,7.29c0,1-.36,1.4-1.36,1.38a42.57,42.57,0,0,0-5.3.05,4,4,0,0,0-2.5,1.2c-4.21,5.11-8.29,10.34-12.48,15.48a1.75,1.75,0,0,0,0,2.68c4.11,4.92,8.15,9.89,12.27,14.8a2.75,2.75,0,0,0,1.81.82q3.74.15,7.46,0c1.41-.05,1.83.49,1.78,1.83-.08,2.26-.05,4.53,0,6.79,0,1-.38,1.37-1.38,1.36q-12.44,0-24.88,0c-1,0-1.41-.33-1.39-1.34q0-3.64,0-7.29c0-1,.45-1.37,1.41-1.33s2.08,0,3.41,0a7.92,7.92,0,0,0-.73-1.32c-2.12-2.55-4.27-5.07-6.39-7.61-.55-.66-1.06-1-1.74-.21l-7.35,8.32a2.45,2.45,0,0,0-.2.62,12.53,12.53,0,0,0,1.24.19c2.14.07,2.14.06,2.14,2.25s0,4.08,0,6.12c0,1.09-.28,1.61-1.49,1.6q-11.37-.06-22.73,0c-1.08,0-1.47-.4-1.45-1.46,0-2.32.06-4.64,0-7,0-1.29.53-1.6,1.69-1.57,2.27.06,4.54.09,6.8,0a3.05,3.05,0,0,0,1.95-.91c4.13-4.9,8.16-9.88,12.28-14.79a1.63,1.63,0,0,0,0-2.53c-4.44-5.21-8.8-10.49-13.26-15.69a3.69,3.69,0,0,0-2.25-1.06,37.44,37.44,0,0,0-5,0c-1,0-1.52-.33-1.5-1.43,0-2.37,0-4.75,0-7.12,0-1.05.35-1.48,1.45-1.47q11.36,0,22.72,0c1.11,0,1.45.43,1.43,1.48-.05,2.37-.05,4.75,0,7.12,0,1.11-.47,1.46-1.5,1.41s-2.05,0-3.07,0l-.32.57Z"/><path d="M177.54,238c-3,1-5.73,1.91-8.48,2.89-1,.37-1.23-.19-1.48-1-.81-2.51-1.72-5-2.5-7.53a1.85,1.85,0,0,0-2-1.5q-6.47.06-12.94,0c-1.3,0-1.75.52-1.72,1.79.06,2.87.07,5.74,0,8.61,0,1.35.41,1.87,1.8,1.84,3.87-.06,7.75,0,11.62,0,1.41,0,2,.33,1.93,1.85-.12,2.2-.08,4.41,0,6.62,0,1.16-.42,1.54-1.56,1.53-4,0-8.07,0-12.11,0-1.2,0-1.68.38-1.66,1.62.06,3.25.05,6.51,0,9.77,0,1.15.44,1.56,1.57,1.55,5.26,0,10.51,0,15.76,0a1.78,1.78,0,0,0,1.89-1.46c.89-2.54,1.81-5.08,2.8-7.83l9.44,3.29c-.31.94-.57,1.76-.85,2.57-1.33,3.86-2.71,7.71-4,11.59A2.18,2.18,0,0,1,172.6,276q-20.82-.09-41.64,0c-1.47,0-2-.44-1.88-1.89.1-2.09.08-4.2,0-6.29-.05-1.33.34-1.93,1.77-1.83s2.77-.05,4.14,0,1.8-.52,1.8-1.85q-.06-15.74,0-31.47c0-1.27-.43-1.82-1.73-1.78-1.54.06-3.09,0-4.64,0-.91,0-1.3-.36-1.29-1.28,0-2.48,0-5,0-7.45,0-1.24.72-1.28,1.63-1.28,5.2,0,10.4,0,15.59,0,7.86,0,15.71,0,23.56,0,1.44,0,2.17.37,2.61,1.81,1.41,4.53,3,9,4.49,13.51C177.17,236.74,177.31,237.27,177.54,238Z"/><path d="M369,278.13a60.28,60.28,0,0,1-17.95-2.77c-1.41-.44-2.18-1-2.28-2.7-.19-3-.75-6-1.17-9-.26-1.83,0-2.12,1.76-2.31,2.09-.21,4.18-.41,6.24-.79,1.11-.2,1.4.28,1.53,1.15a10.38,10.38,0,0,1,.28,2.46c-.21,2.09,1.1,2.53,2.74,2.95,4.32,1.11,8.68,1.74,13.1.84,3.42-.69,6.86-1.68,7.87-5.62.95-3.73.07-6-3.58-6.91s-7.25-1.37-10.89-2c-4.55-.78-9-1.83-12.7-4.82a14.7,14.7,0,0,1-5.44-10.75c-.42-5.3.59-10.1,4.64-13.92a18,18,0,0,1,10.11-4.58,49.54,49.54,0,0,1,23.19,2.26,2.58,2.58,0,0,1,2.09,2.38c.41,3.82,1,7.64,1.47,11.45.12,1-.25,1.37-1.28,1.44-2.47.18-4.95.39-7.4.77-1.21.2-1.46-.34-1.59-1.26-.24-1.75-.49-3.49-.71-5.24-.14-1.14-.51-2-1.89-2-4.06-.06-8.13-.17-12.19-.21a4.64,4.64,0,0,0-1.75.46c-2.1.85-3.83,2.12-4,4.59a5.06,5.06,0,0,0,3.22,5.33,68.24,68.24,0,0,0,8.85,2.49c3.59.86,7.31,1.27,10.8,2.41,8.15,2.66,11.12,9.43,10.43,17.59-.85,9.84-8.05,14.57-16.41,15.79C373.76,277.93,371.37,278,369,278.13Z"/><path d="M312.71,266c-.91-2.95-1.68-5.56-2.56-8.13-.09-.27-.85-.43-1.3-.44-4.31,0-8.63,0-12.94,0-.48,0-1.28.24-1.4.56-.89,2.52-1.64,5.09-2.56,8,1.5,0,2.58,0,3.67,0s1.52.29,1.5,1.41c-.06,2.42,0,4.85,0,7.28,0,.91-.35,1.29-1.27,1.29-7.36,0-14.71,0-22.07-.06a1.64,1.64,0,0,1-1.18-1.09c-.11-2.54,0-5.08-.07-7.62,0-1,.5-1.21,1.36-1.2,2.16,0,4.32,0,6.47,0a1.74,1.74,0,0,0,1.94-1.37q5.54-16,11.13-32c.47-1.32,0-1.7-1.25-1.68-1.43,0-2.87,0-4.31,0-1,0-1.43-.3-1.41-1.33q.06-3.65,0-7.29c0-1,.32-1.39,1.34-1.39,6.58,0,13.16,0,19.74,0,1.4,0,1.57,1,1.89,1.88q4.62,13.38,9.23,26.75c1.69,4.9,3.42,9.78,5.05,14.7a2.15,2.15,0,0,0,2.51,1.78c1.65-.12,3.32,0,5,0,1.1,0,1.46.42,1.44,1.47,0,2.37,0,4.75,0,7.12,0,1-.33,1.4-1.35,1.39q-10.95,0-21.89,0c-1,0-1.37-.4-1.36-1.38,0-2.37.06-4.75,0-7.12,0-1.21.5-1.55,1.59-1.48C310.48,266.05,311.35,266,312.71,266ZM308,250c-1.8-6.1-3.52-11.95-5.24-17.81l-.65.08c-1.76,5.84-3.52,11.69-5.35,17.73Z"/><path d="M167.42,157.32c4.72.32,9.52.23,14.16,1.05,8.17,1.44,13,7.18,14,15.48.58,5.12.58,10.14-1.82,14.86-3.47,6.85-9.34,10.24-16.77,10.64-6.62.36-13.27,0-19.9.14-1.83,0-1.75-1-1.74-2.2s-.18-2.41,1.7-2.22c1.09.12,2.21,0,3.31,0,1.29.09,1.73-.38,1.71-1.7-.06-5.63,0-11.26,0-16.89,0-4.31,0-8.61,0-12.92,0-1.21-.37-1.71-1.61-1.63s-2.43,0-3.64,0-1.55-.37-1.46-1.44a9.27,9.27,0,0,0,0-1.49c-.09-1.08.4-1.46,1.46-1.45,3.54,0,7.08,0,10.62,0Zm-.09,21.09c0,5,0,9.94,0,14.91,0,1.24.34,1.86,1.69,1.79,2.92-.16,5.85-.1,8.76-.39a13,13,0,0,0,11.84-10.41,26.81,26.81,0,0,0-.33-13.08c-1.23-4.84-4.2-8-9.3-8.65-3.49-.42-7-.38-10.56-.62-1.56-.1-2.15.42-2.11,2C167.39,168.81,167.33,173.61,167.33,178.41Z"/><path d="M213.64,195.1c1.45,0,2.44,0,3.41,0s1.45.35,1.38,1.35a7.27,7.27,0,0,0,0,1.32c.15,1.31-.41,1.74-1.71,1.72-4.32-.06-8.63-.1-12.94,0-1.9,0-1.68-1.09-1.67-2.26s-.22-2.24,1.59-2.17,3.75.36,4.94-.46,1.39-2.88,2-4.43q4.75-12.79,9.45-25.62c.26-.71.45-1.44.79-2.57H215.7c-2.25,0-2.25,0-2.25-2.13s0-2.23,2.33-2.23c3.2,0,6.41.06,9.62,0a2.17,2.17,0,0,1,2.5,1.73c3.79,11.13,7.67,22.22,11.53,33.32.85,2.45.84,2.45,3.46,2.46h1.83c2.3,0,2.2,0,2.33,2.24.1,1.68-.45,2.2-2.14,2.15-4.37-.11-8.74-.13-13.11,0-2,.06-1.74-1.09-1.78-2.33s.07-2.37,1.81-2.08a3,3,0,0,0,.67,0c2,0,2.1-.16,1.44-2.11a29.81,29.81,0,0,0-1.4-3.88,2.38,2.38,0,0,0-1.67-1.18c-4.42-.1-8.85-.08-13.28,0a1.88,1.88,0,0,0-1.45.76C215.27,190.61,214.57,192.63,213.64,195.1Zm17-11.72c-1.95-6.34-3.84-12.45-5.72-18.57l-.65.07c-2.07,6.1-4.13,12.2-6.27,18.5Z"/><path d="M107.5,179.63c0-7.78,1.56-13.81,6.59-18.44,4.18-3.84,9.21-5,14.83-4.67,9.43.57,17.23,8.2,17.47,20a38.12,38.12,0,0,1-.86,9.78,18.15,18.15,0,0,1-16.28,14.25c-8.36.86-15.81-3-19.41-10.54A23.32,23.32,0,0,1,107.5,179.63Zm5.72-1.2-.41.07a76.52,76.52,0,0,0,1.68,8.86c2,6.25,6.32,8.86,13.86,8.74,5.38-.09,9.73-3.57,11.41-9.2a30.47,30.47,0,0,0,.25-16,12.7,12.7,0,0,0-5.67-8.23c-2.62-1.62-5.49-1.82-8.46-1.73a11.48,11.48,0,0,0-10.29,6.12A21,21,0,0,0,113.22,178.43Z"/><path d="M353.46,179.28c.09-7.22,1.54-13.23,6.43-17.89,4.2-4,9.34-5.25,15.09-4.85,9.65.66,16.51,8.28,17.45,18.66A27.8,27.8,0,0,1,390,190.48c-3,5.94-7.81,9.21-14.43,10A19,19,0,0,1,361.48,197c-4.59-3.38-6.74-8.19-7.62-13.65C353.6,181.75,353.54,180.15,353.46,179.28Zm5.28-.78c.62,3.13.91,6.3,1.9,9.22,2.08,6.12,6.43,8.57,13.95,8.37,5.13-.13,9.36-3.49,11.1-8.93a30,30,0,0,0,1.05-12.4c-.73-7.07-4.36-14.28-14.41-13.83-5.59.26-10,3-11.68,8.32A87,87,0,0,0,358.74,178.5Z"/><path d="M325.56,157.62c5.48,0,10.95,0,16.42,0,1.57,0,2,.49,1.95,2-.11,2.48-.1,5,0,7.45.05,1.41-.32,2-1.84,1.93-3.63-.12-3.13.33-3.18-3.22-.07-4.3.65-3.7-3.78-3.75-1.83,0-3.65,0-5.48,0-1,0-1.37.4-1.36,1.38q0,15.24,0,30.47c0,.93.39,1.28,1.29,1.26,1.33,0,2.65,0,4,0,1,0,1.48.3,1.39,1.33,0,.27,0,.55,0,.82,0,2.21,0,2.21-2.16,2.22-5,0-10.07-.08-15.1,0-2,0-1.62-1.23-1.69-2.4s.07-2.18,1.72-2c1.15.12,2.33,0,3.48,0,1.31.08,1.77-.48,1.76-1.74,0-4.09,0-8.17,0-12.26,0-5.74,0-11.48.05-17.22,0-1.41-.39-2-1.88-1.93-2.37.09-4.75.07-7.13,0-1.19,0-1.72.33-1.64,1.6a23.74,23.74,0,0,1,0,4.13c-.05.44-.72.82-1.11,1.22,0,0-.11,0-.16,0-4.8-.05-3.89.55-4-3.72,0-1.93.06-3.86,0-5.79-.06-1.35.38-1.84,1.78-1.83C314.4,157.66,320,157.62,325.56,157.62Z"/><path d="M265.56,199.46c-2.6,0-5.2,0-7.79,0-1.17,0-1.62-.42-1.52-1.56.05-.54-.15-1.17.05-1.63s.74-1.08,1.18-1.13a30.07,30.07,0,0,1,4.14-.05c1.08,0,1.62-.32,1.62-1.5q0-15.06,0-30.12c0-1.19-.54-1.54-1.62-1.51-1.33.05-2.66,0-4,0-1,0-1.45-.35-1.38-1.35a5.62,5.62,0,0,0,0-1.16c-.2-1.45.4-1.91,1.86-1.89,5.08.08,10.17.11,15.25,0,1.85,0,1.88.87,1.89,2.24s-.1,2.24-1.91,2.2c-4.8-.08-4.8,0-4.8,4.74,0,8.82,0,17.65,0,26.48,0,1.45.41,2,1.87,1.87,1.15-.1,2.32,0,3.48,0,1,0,1.43.38,1.36,1.37a7.28,7.28,0,0,0,0,1.32c.15,1.32-.44,1.73-1.72,1.7C270.86,199.41,268.21,199.46,265.56,199.46Z"/><path d="M123.4,318.94v-2.6h2.33v-1.1a4.23,4.23,0,0,1,1.18-3.1,4.74,4.74,0,0,1,3.56-1.21c.35,0,.7,0,1,0l1,.07V314a11,11,0,0,0-1.43-.08,1.49,1.49,0,0,0-1.14.37,1.85,1.85,0,0,0-.34,1.25v.85h2.69v2.6h-2.69v11.58h-3.89V318.94Z"/><path d="M137.71,316.34V319h.06a4.88,4.88,0,0,1,1.81-2.18,5.12,5.12,0,0,1,1.29-.62,4.84,4.84,0,0,1,1.42-.22,3.2,3.2,0,0,1,.86.14v3.62c-.19,0-.41-.07-.66-.1s-.51,0-.74,0a4.08,4.08,0,0,0-1.81.36,3.2,3.2,0,0,0-1.2,1,3.94,3.94,0,0,0-.64,1.44,7.8,7.8,0,0,0-.19,1.79v6.39H134V316.34Z"/><path d="M144.27,320.35a6.49,6.49,0,0,1,3.79-3.86,8,8,0,0,1,3-.54,8.19,8.19,0,0,1,3,.54,6.53,6.53,0,0,1,2.31,1.51,6.45,6.45,0,0,1,1.48,2.35,8.71,8.71,0,0,1,.53,3.09,8.52,8.52,0,0,1-.53,3.07,6.54,6.54,0,0,1-1.48,2.35,6.35,6.35,0,0,1-2.31,1.49,8.4,8.4,0,0,1-3,.53,8.19,8.19,0,0,1-3-.53,6.35,6.35,0,0,1-2.31-1.49,6.67,6.67,0,0,1-1.48-2.35,8.52,8.52,0,0,1-.52-3.07A8.71,8.71,0,0,1,144.27,320.35Zm3.54,4.75a4.52,4.52,0,0,0,.56,1.45,3,3,0,0,0,1.06,1,3.19,3.19,0,0,0,1.64.39,3.24,3.24,0,0,0,1.66-.39,2.86,2.86,0,0,0,1.07-1,4.31,4.31,0,0,0,.57-1.45,8.27,8.27,0,0,0,.16-1.66,8.44,8.44,0,0,0-.16-1.67,4.2,4.2,0,0,0-.57-1.46,3.11,3.11,0,0,0-1.07-1,3.24,3.24,0,0,0-1.66-.39,3.19,3.19,0,0,0-1.64.39,3.26,3.26,0,0,0-1.06,1,4.4,4.4,0,0,0-.56,1.46,8.45,8.45,0,0,0-.17,1.67A8.27,8.27,0,0,0,147.81,325.1Z"/><path d="M164.73,316.34v1.92h.06a5.43,5.43,0,0,1,1.85-1.7,4.93,4.93,0,0,1,2.48-.61,5.83,5.83,0,0,1,2.46.52,3.48,3.48,0,0,1,1.69,1.84,6.14,6.14,0,0,1,1.71-1.65,4.61,4.61,0,0,1,2.57-.71,7.27,7.27,0,0,1,2.08.28,3.89,3.89,0,0,1,2.72,2.45,6.54,6.54,0,0,1,.38,2.35v9.49h-3.9v-8c0-.47,0-.92-.05-1.34a3,3,0,0,0-.3-1.1,1.86,1.86,0,0,0-.73-.74,2.64,2.64,0,0,0-1.3-.28,2.49,2.49,0,0,0-1.33.32,2.33,2.33,0,0,0-.8.82,3.32,3.32,0,0,0-.38,1.15,8.17,8.17,0,0,0-.1,1.31v7.9H170v-8c0-.42,0-.83,0-1.25a3.66,3.66,0,0,0-.23-1.13,1.77,1.77,0,0,0-.69-.84,2.58,2.58,0,0,0-1.41-.32,3.13,3.13,0,0,0-.73.13,2.57,2.57,0,0,0-.88.46,2.76,2.76,0,0,0-.72,1,3.87,3.87,0,0,0-.31,1.69v8.23h-3.89V316.34Z"/><path d="M210.47,330.46q-3.39,3-9.36,3t-9.38-2.93q-3.33-2.93-3.32-9V302.9H195v18.56a13.41,13.41,0,0,0,.2,2.38,4.63,4.63,0,0,0,2.74,3.53,7.48,7.48,0,0,0,3.2.57c2.34,0,3.95-.53,4.85-1.57a7.48,7.48,0,0,0,1.33-4.91V302.9h6.56v18.56Q213.85,327.52,210.47,330.46Z"/><path d="M217.15,308.42V302.9H241.6v5.52h-8.94v24.32H226.1V308.42Z"/><path d="M239.05,317.26a9.84,9.84,0,0,1,5.77-5.89,12.2,12.2,0,0,1,4.6-.82,12.36,12.36,0,0,1,4.61.82,9.81,9.81,0,0,1,5.79,5.89,13.24,13.24,0,0,1,.79,4.7,13.05,13.05,0,0,1-.79,4.68,10.12,10.12,0,0,1-2.26,3.57,9.78,9.78,0,0,1-3.53,2.28,12.78,12.78,0,0,1-4.61.79,12.61,12.61,0,0,1-4.6-.79,9.78,9.78,0,0,1-3.51-2.28,10.12,10.12,0,0,1-2.26-3.57,13.05,13.05,0,0,1-.79-4.68A13.24,13.24,0,0,1,239.05,317.26Zm5.39,7.23a6.62,6.62,0,0,0,.86,2.21,4.49,4.49,0,0,0,1.61,1.57,4.91,4.91,0,0,0,2.51.58,5,5,0,0,0,2.52-.58,4.39,4.39,0,0,0,1.63-1.57,6.62,6.62,0,0,0,.86-2.21,12.48,12.48,0,0,0,.25-2.53,12.82,12.82,0,0,0-.25-2.55,6.51,6.51,0,0,0-.86-2.22,4.61,4.61,0,0,0-1.63-1.56,4.8,4.8,0,0,0-2.52-.61,4.6,4.6,0,0,0-4.12,2.17,6.51,6.51,0,0,0-.86,2.22,12.82,12.82,0,0,0-.25,2.55A12.48,12.48,0,0,0,244.44,324.49Z"/><path d="M270.1,302.9v16l7.48-7.77h7l-8.15,7.94,9.07,13.66h-7.19l-5.93-9.65-2.3,2.21v7.44h-5.93V302.9Z"/><path d="M296.43,339.18a8.68,8.68,0,0,1-4.77,1.12c-.61,0-1.22,0-1.82-.06l-1.81-.15v-4.88l1.71.16a11.37,11.37,0,0,0,1.75,0,2.34,2.34,0,0,0,1.74-.91,3,3,0,0,0,.56-1.76,3.55,3.55,0,0,0-.25-1.34L286,311.14h6.31l4.89,14.79h.08L302,311.14h6.15l-9,24.27A7.35,7.35,0,0,1,296.43,339.18Z"/><path d="M308.58,317.26a9.84,9.84,0,0,1,5.77-5.89,12.24,12.24,0,0,1,4.6-.82,12.38,12.38,0,0,1,4.62.82,9.76,9.76,0,0,1,5.78,5.89,13.24,13.24,0,0,1,.8,4.7,13.05,13.05,0,0,1-.8,4.68,10.24,10.24,0,0,1-2.25,3.57,10,10,0,0,1-3.53,2.28,12.8,12.8,0,0,1-4.62.79,12.65,12.65,0,0,1-4.6-.79,10,10,0,0,1-3.51-2.28,10.27,10.27,0,0,1-2.26-3.57,13.28,13.28,0,0,1-.79-4.68A13.47,13.47,0,0,1,308.58,317.26Zm5.4,7.23a6.61,6.61,0,0,0,.85,2.21,4.57,4.57,0,0,0,1.61,1.57,4.93,4.93,0,0,0,2.51.58,5.06,5.06,0,0,0,2.53-.58,4.54,4.54,0,0,0,1.63-1.57,6.61,6.61,0,0,0,.85-2.21,12.48,12.48,0,0,0,.25-2.53,12.82,12.82,0,0,0-.25-2.55,6.5,6.5,0,0,0-.85-2.22,4.78,4.78,0,0,0-1.63-1.56A4.86,4.86,0,0,0,319,315a4.74,4.74,0,0,0-2.51.61,4.81,4.81,0,0,0-1.61,1.56,6.5,6.5,0,0,0-.85,2.22,12.83,12.83,0,0,0-.26,2.55A12.48,12.48,0,0,0,314,324.49Z"/></g></g></svg>