<svg xmlns="http://www.w3.org/2000/svg" width="104.659" height="58.012" viewBox="0 0 104.659 58.012">
  <g id="グループ_739" data-name="グループ 739" transform="translate(185.923 -147.045)">
    <g id="グループ_53" data-name="グループ 53">
      <path id="パス_365" data-name="パス 365" d="M-185.923,167.342c.243.017.485.047.727.047q7.275,0,14.55,0c.7,0,.7,0,.7.68,0,1.655-.011,3.309.008,4.964,0,.411-.129.554-.542.539-.714-.027-1.43-.021-2.145,0-.367.01-.495-.13-.485-.489.018-.661-.008-1.324.008-1.985.01-.4-.152-.567-.556-.556-.645.017-1.291.009-1.937,0-.3,0-.433.118-.433.437q.011,5.094,0,10.188c0,.357.154.45.473.441.488-.013.978.015,1.465-.007.37-.017.491.134.482.491-.018.731-.015,1.463,0,2.194.006.329-.1.469-.451.468q-3.846-.014-7.693,0c-.341,0-.464-.124-.457-.461q.022-1.122,0-2.246c-.008-.352.146-.455.472-.445.505.016,1.012-.006,1.518.006.31.007.431-.111.43-.43q-.01-5.094,0-10.188c0-.309-.111-.45-.422-.447q-.994.007-1.988,0c-.309,0-.432.133-.425.445.014.679-.014,1.359.01,2.038.015.4-.121.551-.538.545-.922-.012-1.845.024-2.768.041Z"/>
      <path id="パス_366" data-name="パス 366" d="M-185.923,147.372c.244.012.487.036.73.037,3.437,0,6.874.011,10.311-.009.507,0,.672.147.648.651-.037.8-.029,1.6,0,2.4.014.422-.148.542-.55.532-1.2-.028-1.018.113-1.033-1.034-.017-1.324.161-1.152-1.175-1.165-.575-.005-1.151.012-1.727,0-.341-.009-.484.129-.446.463a.448.448,0,0,1,0,.052q-.045,4.595-.089,9.19c-.007.744,0,.745.765.747.332,0,.664.012.995,0s.446.126.426.435a2.838,2.838,0,0,0,0,.47c.035.372-.14.481-.494.479q-2.485-.018-4.972,0c-.374,0-.566-.1-.523-.5a2.234,2.234,0,0,0,0-.417c-.027-.331.105-.482.451-.465.366.018.734-.018,1.1.009.429.032.574-.125.568-.562q-.032-2.613-.005-5.225.018-2.008.094-4.016c.018-.5-.154-.684-.661-.66-.749.034-1.5.022-2.25,0-.388-.01-.538.151-.526.524s-.02.768.007,1.15c.031.423-.151.55-.551.531-.362-.017-.728.027-1.092.044Z"/>
      <path id="パス_367" data-name="パス 367" d="M-133.733,174.074l2.934-3.334-.082-.2c-.32,0-.64-.009-.959,0-.29.01-.409-.118-.407-.4q.01-1.176,0-2.351c0-.29.122-.4.41-.4q3.507.007,7.015,0c.308,0,.444.1.438.424q-.018,1.15,0,2.3c.005.31-.112.443-.429.435a13.145,13.145,0,0,0-1.673.016,1.269,1.269,0,0,0-.788.377c-1.329,1.614-2.615,3.264-3.936,4.885a.556.556,0,0,0,0,.848c1.3,1.55,2.571,3.12,3.872,4.667a.864.864,0,0,0,.573.262c.784.03,1.57.033,2.354,0,.445-.016.577.155.561.578-.026.714-.016,1.429,0,2.143,0,.313-.12.431-.434.431q-3.926-.01-7.852,0c-.309,0-.445-.106-.44-.425q.018-1.149,0-2.3c0-.324.143-.431.445-.421.328.012.657,0,1.078,0a2.863,2.863,0,0,0-.23-.415c-.67-.8-1.349-1.6-2.017-2.4-.173-.208-.334-.311-.55-.066q-1.159,1.314-2.317,2.627c-.031.034-.033.093-.066.194a3.278,3.278,0,0,0,.393.06c.674.022.675.02.676.71,0,.645-.012,1.29,0,1.934.009.343-.087.506-.47.5q-3.585-.018-7.171,0c-.341,0-.466-.124-.459-.461.014-.731.021-1.463,0-2.194-.013-.408.166-.505.534-.5.715.019,1.432.027,2.145-.008a.951.951,0,0,0,.617-.288c1.3-1.545,2.575-3.116,3.875-4.664a.517.517,0,0,0-.01-.8c-1.4-1.645-2.777-3.311-4.186-4.95a1.152,1.152,0,0,0-.709-.336,12.06,12.06,0,0,0-1.568-.013c-.33.009-.479-.1-.472-.45q.021-1.123,0-2.247c-.006-.331.109-.467.455-.465q3.585.014,7.171,0c.349,0,.457.138.45.468q-.022,1.122,0,2.247c.008.351-.146.461-.472.446s-.646,0-.969,0l-.1.178Z"/>
      <path id="パス_368" data-name="パス 368" d="M-149.13,172.78c-.932.317-1.808.6-2.675.914-.324.116-.387-.061-.466-.3-.257-.794-.543-1.579-.79-2.376a.579.579,0,0,0-.64-.473q-2.041.016-4.084,0c-.409,0-.55.163-.542.564.019.9.022,1.812,0,2.717-.01.425.132.589.57.581,1.221-.021,2.444.01,3.665-.015.444-.009.633.1.609.582-.036.695-.023,1.394,0,2.09.01.367-.134.486-.493.483-1.273-.014-2.548.005-3.821-.012-.381,0-.531.12-.524.509.017,1.028.014,2.056,0,3.084,0,.362.141.492.5.49,1.658-.01,3.316-.012,4.974,0a.563.563,0,0,0,.6-.461c.28-.8.571-1.6.882-2.47l2.979,1.038c-.1.3-.178.556-.266.812-.419,1.217-.855,2.43-1.253,3.654a.689.689,0,0,1-.77.576q-6.57-.029-13.141,0c-.462,0-.616-.14-.593-.6.032-.661.027-1.325,0-1.986-.017-.42.108-.61.558-.577.434.032.873-.014,1.308.012s.568-.162.566-.583q-.016-4.965,0-9.93c0-.4-.135-.575-.544-.561-.488.017-.977-.005-1.466,0-.288,0-.41-.113-.407-.4.009-.784.014-1.568,0-2.352-.008-.39.225-.4.512-.4,1.641,0,3.281,0,4.922,0,2.478,0,4.956.011,7.434-.01a.708.708,0,0,1,.823.572c.445,1.429.94,2.842,1.415,4.262C-149.246,172.378-149.2,172.544-149.13,172.78Z"/>
      <path id="パス_369" data-name="パス 369" d="M-88.71,185.438a19.035,19.035,0,0,1-5.664-.875.837.837,0,0,1-.72-.852c-.059-.95-.234-1.894-.369-2.839-.082-.577-.009-.67.558-.729.657-.068,1.318-.129,1.967-.248.35-.065.442.087.482.362a3.276,3.276,0,0,1,.09.774c-.065.66.346.8.863.933a9.152,9.152,0,0,0,4.135.265c1.078-.219,2.164-.53,2.482-1.775.3-1.176.023-1.9-1.129-2.18-1.128-.277-2.287-.433-3.435-.629a8.337,8.337,0,0,1-4.008-1.522,4.635,4.635,0,0,1-1.716-3.393,5.086,5.086,0,0,1,1.463-4.393,5.7,5.7,0,0,1,3.19-1.445,15.662,15.662,0,0,1,7.317.713.815.815,0,0,1,.66.751c.131,1.207.306,2.41.463,3.615.04.305-.078.431-.4.454-.781.055-1.563.121-2.335.244-.383.061-.463-.108-.5-.4-.075-.55-.154-1.1-.223-1.651-.045-.362-.163-.631-.6-.637-1.283-.019-2.564-.055-3.847-.068a1.522,1.522,0,0,0-.552.145,1.7,1.7,0,0,0-1.263,1.45,1.6,1.6,0,0,0,1.015,1.679,21.273,21.273,0,0,0,2.8.786c1.132.272,2.306.4,3.407.763,2.572.84,3.51,2.975,3.29,5.549-.266,3.105-2.539,4.6-5.178,4.984C-87.211,185.375-87.964,185.384-88.71,185.438Z"/>
      <path id="パス_370" data-name="パス 370" d="M-106.476,181.611c-.286-.93-.528-1.754-.806-2.566-.029-.085-.269-.137-.411-.139q-2.042-.015-4.083,0c-.153,0-.4.077-.441.178-.281.795-.52,1.6-.808,2.525.471,0,.814.013,1.156,0,.326-.016.482.09.474.443-.017.766-.011,1.533,0,2.3,0,.288-.11.407-.4.406-2.32,0-4.641,0-6.962-.018a.52.52,0,0,1-.373-.345c-.035-.8-.013-1.6-.021-2.4,0-.3.157-.383.429-.38.68.008,1.361-.012,2.041.007a.551.551,0,0,0,.613-.431q1.746-5.058,3.512-10.11c.147-.418,0-.539-.4-.531-.453.009-.907-.008-1.36,0-.3.008-.45-.1-.445-.42q.018-1.149,0-2.3c0-.306.1-.441.423-.44,2.076.008,4.153.012,6.229,0,.441,0,.494.3.6.6l2.913,8.438c.534,1.546,1.078,3.089,1.594,4.641a.68.68,0,0,0,.791.561c.521-.038,1.047.005,1.569-.013.346-.012.461.132.455.464-.015.749-.012,1.5,0,2.247,0,.306-.1.441-.424.44q-3.455-.012-6.91,0c-.32,0-.431-.128-.426-.437.011-.749.018-1.5,0-2.247-.011-.382.159-.489.5-.466C-107.18,181.626-106.9,181.611-106.476,181.611Zm-1.48-5.049-1.652-5.62-.205.024-1.688,5.6Z"/>
      <path id="パス_371" data-name="パス 371" d="M-152.323,147.316a41.683,41.683,0,0,1,4.469.331,5.18,5.18,0,0,1,4.4,4.886,8.007,8.007,0,0,1-.572,4.689,5.938,5.938,0,0,1-5.294,3.357c-2.087.114-4.185.011-6.278.045-.579.009-.554-.306-.549-.695s-.058-.761.536-.7c.345.036.7-.013,1.045.011.408.029.545-.12.54-.537-.02-1.776-.008-3.553-.008-5.329,0-1.359-.012-2.717.006-4.075.005-.383-.116-.54-.506-.517s-.768-.009-1.151.008c-.338.016-.487-.118-.459-.457a3.074,3.074,0,0,0,0-.47c-.027-.341.127-.46.462-.457,1.116.012,2.233,0,3.349,0Zm-.028,6.656c0,1.568.008,3.137-.005,4.705,0,.389.1.585.531.562.922-.049,1.849-.031,2.766-.12a4.12,4.12,0,0,0,3.736-3.286,8.443,8.443,0,0,0-.1-4.13,3.3,3.3,0,0,0-2.934-2.728c-1.1-.132-2.222-.118-3.332-.194-.493-.033-.677.13-.667.644C-152.333,150.94-152.351,152.456-152.351,153.972Z"/>
      <path id="パス_372" data-name="パス 372" d="M-137.737,159.236c.459,0,.768.012,1.077,0s.456.111.435.427a2.336,2.336,0,0,0,0,.418c.046.411-.129.547-.54.541-1.361-.019-2.723-.03-4.084,0-.6.015-.528-.344-.525-.714,0-.35-.069-.705.5-.684a2.827,2.827,0,0,0,1.56-.145c.358-.249.438-.909.619-1.4q1.5-4.041,2.982-8.086c.082-.223.14-.454.248-.81-.6,0-1.112,0-1.625,0-.709,0-.709,0-.709-.672,0-.7,0-.7.733-.7,1.012,0,2.025.019,3.037-.009a.684.684,0,0,1,.789.547c1.2,3.509,2.422,7.009,3.637,10.512.268.774.266.775,1.094.776h.576c.727,0,.694,0,.736.708.032.531-.141.694-.676.68-1.378-.036-2.759-.042-4.136,0-.629.02-.548-.342-.563-.734-.015-.418.022-.748.573-.657a1.216,1.216,0,0,0,.209,0c.634-.007.664-.051.456-.667a9.593,9.593,0,0,0-.443-1.225.748.748,0,0,0-.526-.372c-1.4-.03-2.793-.024-4.189-.006a.6.6,0,0,0-.46.241C-137.221,157.821-137.442,158.459-137.737,159.236Zm5.351-3.7-1.8-5.858-.206.019-1.978,5.839Z"/>
      <path id="パス_373" data-name="パス 373" d="M-171.23,154.355c.009-2.454.492-4.358,2.079-5.818a6.011,6.011,0,0,1,4.681-1.474c2.975.179,5.435,2.588,5.513,6.3a12.07,12.07,0,0,1-.272,3.086,5.731,5.731,0,0,1-5.139,4.5,5.882,5.882,0,0,1-6.122-3.327A7.355,7.355,0,0,1-171.23,154.355Zm1.8-.378-.13.023a23.6,23.6,0,0,0,.532,2.795c.616,1.972,1.993,2.8,4.373,2.757a3.793,3.793,0,0,0,3.6-2.9,9.592,9.592,0,0,0,.081-5.038,4.006,4.006,0,0,0-1.791-2.6,4.572,4.572,0,0,0-2.668-.548,3.623,3.623,0,0,0-3.247,1.931A6.637,6.637,0,0,0-169.425,153.977Z"/>
      <path id="パス_374" data-name="パス 374" d="M-93.617,154.246c.028-2.28.488-4.177,2.029-5.647a5.937,5.937,0,0,1,4.761-1.531c3.048.21,5.212,2.614,5.51,5.891a8.78,8.78,0,0,1-.773,4.819,5.488,5.488,0,0,1-4.553,3.152,6.008,6.008,0,0,1-4.444-1.1,6.321,6.321,0,0,1-2.4-4.307C-93.571,155.026-93.591,154.52-93.617,154.246ZM-91.95,154a22.94,22.94,0,0,0,.6,2.911c.655,1.93,2.028,2.7,4.4,2.641a3.777,3.777,0,0,0,3.5-2.818,9.5,9.5,0,0,0,.331-3.913c-.23-2.231-1.375-4.508-4.548-4.364a3.76,3.76,0,0,0-3.687,2.626A27.321,27.321,0,0,0-91.95,154Z"/>
      <path id="パス_375" data-name="パス 375" d="M-102.419,147.41c1.727,0,3.455.017,5.182-.01.493-.008.635.157.614.63-.034.782-.03,1.568,0,2.351.017.443-.1.624-.581.608-1.145-.038-.986.1-1-1.016-.02-1.358.205-1.17-1.193-1.185-.576-.007-1.152.007-1.727,0-.313-.006-.432.125-.432.436q.009,4.808,0,9.614c0,.295.122.4.4.4.418-.008.838.011,1.256,0,.305-.01.467.1.44.42-.008.086,0,.174,0,.261,0,.7,0,.7-.683.7-1.588,0-3.176-.023-4.762.011-.646.014-.512-.388-.535-.757-.025-.4.021-.69.544-.637.362.036.733-.012,1.1.011.411.025.558-.15.554-.55-.012-1.288,0-2.577,0-3.866,0-1.811,0-3.623.017-5.434.006-.445-.124-.63-.593-.611-.749.03-1.5.022-2.25,0-.375-.01-.544.106-.518.505a7.764,7.764,0,0,1-.012,1.3c-.016.141-.228.26-.352.387-.008.009-.033,0-.051,0-1.514-.015-1.228.174-1.253-1.173-.011-.61.019-1.22-.009-1.829-.019-.426.122-.58.563-.575C-105.943,147.422-104.181,147.41-102.419,147.41Z"/>
      <path id="パス_376" data-name="パス 376" d="M-121.354,160.612c-.819,0-1.639-.013-2.459.005-.367.008-.511-.134-.478-.492.015-.172-.047-.369.017-.516s.231-.34.37-.356a9.48,9.48,0,0,1,1.306-.015c.343.011.512-.1.511-.474q-.011-4.754,0-9.505c0-.374-.168-.486-.51-.475-.418.014-.838-.008-1.256.006-.311.01-.458-.11-.434-.427a1.713,1.713,0,0,0,0-.365c-.062-.458.128-.6.588-.6,1.6.024,3.209.034,4.813,0,.582-.013.593.275.6.706s-.031.707-.6.7c-1.514-.027-1.515,0-1.515,1.493,0,2.785.01,5.571-.01,8.356,0,.458.129.633.591.593.364-.032.733,0,1.1-.009.316-.012.451.12.43.432a2.245,2.245,0,0,0,0,.418c.048.416-.139.547-.543.536C-119.679,160.6-120.517,160.612-121.354,160.612Z"/>
    </g>
    <g id="グループ_54" data-name="グループ 54">
      <path id="パス_377" data-name="パス 377" d="M-170.044,198.316v-.822h.736v-.346a1.342,1.342,0,0,1,.372-.979,1.512,1.512,0,0,1,1.126-.381c.109,0,.219.005.328.013s.217.017.321.022v.918a3.645,3.645,0,0,0-.45-.026.473.473,0,0,0-.36.117.575.575,0,0,0-.107.394v.268h.848v.822h-.848v3.653h-1.23v-3.653Z"/>
      <path id="パス_378" data-name="パス 378" d="M-165.525,197.494v.831h.017a1.509,1.509,0,0,1,.234-.385,1.514,1.514,0,0,1,.337-.3,1.639,1.639,0,0,1,.407-.195,1.474,1.474,0,0,1,.45-.069.96.96,0,0,1,.269.043v1.143c-.058-.012-.127-.022-.208-.031s-.159-.013-.234-.013a1.309,1.309,0,0,0-.571.113.982.982,0,0,0-.376.307,1.212,1.212,0,0,0-.2.455,2.489,2.489,0,0,0-.061.562v2.017h-1.229v-4.475Z"/>
      <path id="パス_379" data-name="パス 379" d="M-163.456,198.762a2.08,2.08,0,0,1,.467-.744,2.1,2.1,0,0,1,.728-.477,2.559,2.559,0,0,1,.952-.168,2.6,2.6,0,0,1,.956.168,2.1,2.1,0,0,1,.732.477,2.094,2.094,0,0,1,.467.744,2.742,2.742,0,0,1,.164.974,2.7,2.7,0,0,1-.164.969,2.1,2.1,0,0,1-.467.74,2.036,2.036,0,0,1-.732.472,2.638,2.638,0,0,1-.956.165,2.6,2.6,0,0,1-.952-.165,2.037,2.037,0,0,1-.728-.472,2.081,2.081,0,0,1-.467-.74,2.7,2.7,0,0,1-.164-.969A2.742,2.742,0,0,1-163.456,198.762Zm1.117,1.5a1.364,1.364,0,0,0,.177.459.951.951,0,0,0,.333.325,1.018,1.018,0,0,0,.52.121,1.038,1.038,0,0,0,.523-.121.933.933,0,0,0,.338-.325,1.364,1.364,0,0,0,.177-.459,2.584,2.584,0,0,0,.052-.523,2.656,2.656,0,0,0-.052-.528,1.332,1.332,0,0,0-.177-.459.984.984,0,0,0-.338-.325,1.018,1.018,0,0,0-.523-.125,1,1,0,0,0-.52.125,1,1,0,0,0-.333.325,1.332,1.332,0,0,0-.177.459,2.657,2.657,0,0,0-.053.528A2.586,2.586,0,0,0-162.339,200.259Z"/>
      <path id="パス_380" data-name="パス 380" d="M-157,197.494v.606h.018a1.743,1.743,0,0,1,.584-.537,1.582,1.582,0,0,1,.783-.19,1.794,1.794,0,0,1,.775.164,1.093,1.093,0,0,1,.533.58,1.9,1.9,0,0,1,.54-.519,1.442,1.442,0,0,1,.81-.225,2.418,2.418,0,0,1,.658.086,1.324,1.324,0,0,1,.519.277,1.275,1.275,0,0,1,.338.5,2.037,2.037,0,0,1,.121.74v2.995h-1.229v-2.536c0-.15-.006-.291-.017-.424a.915.915,0,0,0-.1-.347.57.57,0,0,0-.229-.233.826.826,0,0,0-.411-.087.782.782,0,0,0-.42.1.724.724,0,0,0-.251.259,1.029,1.029,0,0,0-.121.364,2.687,2.687,0,0,0-.03.411v2.493h-1.23v-2.51c0-.133,0-.264-.009-.394a1.087,1.087,0,0,0-.073-.359.552.552,0,0,0-.216-.264.814.814,0,0,0-.446-.1.92.92,0,0,0-.23.039.769.769,0,0,0-.277.147.867.867,0,0,0-.229.312,1.254,1.254,0,0,0-.1.532v2.6h-1.229v-4.475Z"/>
      <path id="パス_381" data-name="パス 381" d="M-142.567,201.952a4.355,4.355,0,0,1-2.954.929,4.33,4.33,0,0,1-2.96-.923,3.6,3.6,0,0,1-1.048-2.848v-5.855h2.07v5.855a4.362,4.362,0,0,0,.065.752,1.527,1.527,0,0,0,.277.652,1.536,1.536,0,0,0,.588.462,2.374,2.374,0,0,0,1.008.178,1.939,1.939,0,0,0,1.53-.5,2.354,2.354,0,0,0,.422-1.549v-5.855h2.07v5.855A3.569,3.569,0,0,1-142.567,201.952Z"/>
      <path id="パス_382" data-name="パス 382" d="M-140.457,195v-1.741h7.714V195h-2.822v7.674h-2.071V195Z"/>
      <path id="パス_383" data-name="パス 383" d="M-133.548,197.785a3.175,3.175,0,0,1,.713-1.134,3.174,3.174,0,0,1,1.107-.725,3.883,3.883,0,0,1,1.451-.258,3.937,3.937,0,0,1,1.457.258,3.176,3.176,0,0,1,1.114.725,3.2,3.2,0,0,1,.712,1.134,4.183,4.183,0,0,1,.251,1.483,4.126,4.126,0,0,1-.251,1.477,3.211,3.211,0,0,1-.712,1.128,3.106,3.106,0,0,1-1.114.718,4.042,4.042,0,0,1-1.457.251,3.986,3.986,0,0,1-1.451-.251,3.1,3.1,0,0,1-1.107-.718,3.185,3.185,0,0,1-.713-1.128,4.127,4.127,0,0,1-.25-1.477A4.184,4.184,0,0,1-133.548,197.785Zm1.7,2.281a2.1,2.1,0,0,0,.27.7,1.428,1.428,0,0,0,.507.494,1.545,1.545,0,0,0,.792.185,1.581,1.581,0,0,0,.8-.185,1.425,1.425,0,0,0,.514-.494,2.139,2.139,0,0,0,.27-.7,3.97,3.97,0,0,0,.079-.8,4.074,4.074,0,0,0-.079-.8,2.063,2.063,0,0,0-.27-.7,1.515,1.515,0,0,0-.514-.495,1.551,1.551,0,0,0-.8-.191,1.516,1.516,0,0,0-.792.191,1.52,1.52,0,0,0-.507.495,2.023,2.023,0,0,0-.27.7,4,4,0,0,0-.08.8A3.9,3.9,0,0,0-131.846,200.066Z"/>
      <path id="パス_384" data-name="パス 384" d="M-123.75,193.255v5.051l2.36-2.453h2.216l-2.572,2.505,2.862,4.312h-2.268l-1.873-3.046-.725.7v2.347h-1.873v-9.415Z"/>
      <path id="パス_385" data-name="パス 385" d="M-115.443,204.7a2.718,2.718,0,0,1-1.5.356c-.194,0-.385-.006-.574-.02s-.38-.028-.573-.046v-1.543c.175.018.356.036.54.053a3.8,3.8,0,0,0,.554.013.725.725,0,0,0,.547-.29.931.931,0,0,0,.178-.554,1.123,1.123,0,0,0-.079-.422l-2.387-6.4h1.992l1.542,4.668h.027l1.49-4.668h1.938l-2.848,7.661A2.306,2.306,0,0,1-115.443,204.7Z"/>
      <path id="パス_386" data-name="パス 386" d="M-111.606,197.785a3.186,3.186,0,0,1,.712-1.134,3.178,3.178,0,0,1,1.108-.725,3.878,3.878,0,0,1,1.45-.258,3.934,3.934,0,0,1,1.457.258,3.18,3.18,0,0,1,1.115.725,3.214,3.214,0,0,1,.712,1.134,4.206,4.206,0,0,1,.25,1.483,4.148,4.148,0,0,1-.25,1.477,3.225,3.225,0,0,1-.712,1.128,3.11,3.11,0,0,1-1.115.718,4.039,4.039,0,0,1-1.457.251,3.981,3.981,0,0,1-1.45-.251,3.107,3.107,0,0,1-1.108-.718,3.2,3.2,0,0,1-.712-1.128,4.126,4.126,0,0,1-.25-1.477A4.183,4.183,0,0,1-111.606,197.785Zm1.7,2.281a2.139,2.139,0,0,0,.27.7,1.439,1.439,0,0,0,.508.494,1.541,1.541,0,0,0,.791.185,1.576,1.576,0,0,0,.8-.185,1.417,1.417,0,0,0,.514-.494,2.117,2.117,0,0,0,.27-.7,3.97,3.97,0,0,0,.08-.8,4.075,4.075,0,0,0-.08-.8,2.043,2.043,0,0,0-.27-.7,1.506,1.506,0,0,0-.514-.495,1.546,1.546,0,0,0-.8-.191,1.512,1.512,0,0,0-.791.191,1.532,1.532,0,0,0-.508.495,2.064,2.064,0,0,0-.27.7,4.074,4.074,0,0,0-.079.8A3.97,3.97,0,0,0-109.9,200.066Z"/>
    </g>
  </g>
</svg>
